<svg width="80" height="80" viewBox="0 0 80 80" fill="none" xmlns="http://www.w3.org/2000/svg">
<g clip-path="url(#clip0_4670_3744)">
<path d="M68.0359 73.5207C68.0606 73.7621 68.4409 73.7645 68.4161 73.5213C68.3086 72.4686 68.954 71.479 69.9684 71.1582C70.7647 70.9065 71.5678 71.2048 71.8042 72.0494C71.9084 72.4217 71.9122 72.7758 71.81 73.1162C71.8068 73.1162 71.8039 73.1154 71.8007 73.1154C71.4523 73.1098 71.1194 73.203 70.8024 73.3409C70.5594 73.4465 70.2206 73.6137 70.1701 73.9056C70.1123 74.2402 70.4986 74.4614 70.7794 74.5031C71.1263 74.5547 71.4438 74.3591 71.671 74.1125C71.8387 73.9304 71.9665 73.7323 72.0622 73.5237C72.1137 73.5323 72.1653 73.5398 72.2162 73.5529C72.9111 73.7323 73.5068 74.3153 73.6039 75.0421C73.6898 75.6854 73.1894 76.0711 72.6025 76.1877C72.4499 75.975 72.2601 75.7909 72.0404 75.6656C71.6015 75.4149 71.1352 75.5264 70.9572 76.0195C70.9365 76.0772 70.9575 76.1652 71.0058 76.2045C71.3954 76.5224 71.9095 76.6391 72.4088 76.5947C72.5625 76.8718 72.6439 77.1918 72.598 77.5031C72.5197 78.0327 72.0536 78.5382 71.5303 78.6518C70.4753 78.8807 69.4432 77.7547 69.1352 76.8576C69.0561 76.6272 68.6888 76.7261 68.7685 76.9579C69.0236 77.7011 69.5715 78.371 70.2566 78.7597C70.8316 79.086 71.5426 79.1848 72.1222 78.8124C72.7114 78.4339 73.0757 77.7536 72.9663 77.0535C72.9383 76.8747 72.8797 76.6958 72.8 76.5249C72.9202 76.4925 73.0383 76.4541 73.1499 76.4027C73.9248 76.0458 74.1619 75.2574 73.8403 74.488C73.5542 73.8037 72.9119 73.3063 72.1911 73.1618C72.2703 72.8491 72.2812 72.5177 72.222 72.1766C72.1276 71.6331 71.8332 71.1118 71.3249 70.8613C70.8618 70.6332 70.3155 70.6422 69.8325 70.8036C68.6872 71.1857 67.9121 72.3097 68.0359 73.5207ZM72.1348 76.2228C71.859 76.2111 71.594 76.1405 71.3854 76.0109C71.5742 75.7678 71.9483 76.032 72.1348 76.2228ZM71.6417 73.5051C71.6274 73.5301 71.6153 73.5553 71.5998 73.5799C71.4596 73.804 71.2413 74.084 70.9608 74.1275C70.8275 74.1481 70.7055 74.1005 70.5972 74.0251C70.5174 73.9698 70.5374 73.9628 70.6011 73.8962C70.7699 73.72 71.0711 73.6284 71.2988 73.5631C71.4115 73.5307 71.5263 73.5142 71.6417 73.5051Z" fill="black"/>
<path d="M67.744 74.4719H67.7436L61.053 74.4599C60.9399 74.4594 60.8483 74.3678 60.8486 74.2547C60.8491 74.1419 60.9407 74.0503 61.0533 74.0503H61.0538L67.7443 74.0623C67.8575 74.0628 67.949 74.1544 67.9487 74.2675C67.9483 74.3803 67.8567 74.4719 67.744 74.4719Z" fill="black"/>
<path d="M67.6305 76.2733H67.6301L63.4393 76.2656C63.3261 76.2652 63.2344 76.1736 63.2349 76.0605C63.2353 75.9476 63.3269 75.8561 63.4396 75.8561H63.44L67.6308 75.8637C67.744 75.8642 67.8355 75.9558 67.8352 76.0689C67.8349 76.1817 67.7432 76.2733 67.6305 76.2733Z" fill="black"/>
<path d="M24.1892 49.5068C17.1474 57.0558 13.7993 67.0929 14.9775 77.3848C15.2241 79.5394 18.604 79.3581 18.3557 77.1895C17.2735 67.7351 20.2428 58.6971 26.7162 51.7574C28.2043 50.1617 25.6752 47.9135 24.1892 49.5068Z" fill="black"/>
<path d="M18.4644 74.9515C18.4644 74.9515 20.6212 73.2078 16.3146 73.0662C11.6972 72.9145 14.6012 74.8607 14.6012 74.8607L13.906 75.2485C13.906 75.2485 8.94931 71.2979 7.06463 75.1774C5.17979 79.057 10.5416 79.7622 13.8305 79.8436C17.1195 79.9249 20.6454 80.6974 18.4644 74.9515Z" fill="#FF558B"/>
<path d="M16.1488 80C15.7154 80 15.2589 79.9794 14.7956 79.9586C14.4746 79.9441 14.1506 79.9295 13.8287 79.9216C11.2283 79.8572 7.91568 79.4306 6.90029 77.7631C6.46541 77.0488 6.49713 76.1672 6.99436 75.1432C7.44127 74.2235 8.09773 73.6598 8.9453 73.4676C10.096 73.2071 11.3985 73.6897 12.2887 74.141C13.1147 74.5597 13.7488 75.0293 13.9132 75.1551L14.4554 74.8526C14.1849 74.6521 13.4903 74.0805 13.6444 73.6026C13.7951 73.1349 14.6689 72.9349 16.3173 72.9881C17.9541 73.042 18.8739 73.3371 19.0513 73.8661C19.2122 74.3458 18.712 74.8374 18.557 74.9752C19.3188 77.0006 19.4175 78.3607 18.8589 79.1325C18.3414 79.8474 17.33 80 16.1488 80ZM9.63519 73.55C9.41268 73.55 9.19328 73.5717 8.97983 73.62C8.18086 73.8011 7.56018 74.3366 7.13515 75.2114C6.66246 76.1844 6.62823 77.0156 7.03389 77.6817C7.47612 78.4079 8.94733 79.6444 13.8327 79.7652C14.1556 79.7733 14.4807 79.788 14.8026 79.8023C16.4851 79.878 18.0743 79.9497 18.7323 79.0404C19.2624 78.3083 19.151 76.9796 18.3914 74.9791L18.3714 74.9262L18.4153 74.8907C18.4217 74.8855 19.0544 74.366 18.903 73.9155C18.7966 73.599 18.2609 73.2082 16.312 73.1442C14.3848 73.0806 13.8787 73.3845 13.7929 73.6503C13.668 74.0377 14.3654 74.6083 14.6447 74.7955L14.7506 74.8665L13.8985 75.342L13.8574 75.3093C13.8329 75.29 11.6233 73.55 9.63519 73.55Z" fill="black"/>
<path d="M17.0164 75.3115C16.8781 75.3115 16.732 75.3051 16.5781 75.2902L16.5931 75.1346C17.7094 75.2427 18.4216 74.8856 18.4286 74.882L18.4997 75.0212C18.4734 75.0346 17.92 75.3115 17.0164 75.3115Z" fill="black"/>
<path d="M15.3419 75.1701C15.2651 75.1701 15.0028 75.1512 14.5659 74.9304L14.6364 74.7908C15.1048 75.0277 15.3492 75.014 15.352 75.0137L15.3651 75.1693C15.3634 75.1694 15.3556 75.1701 15.3419 75.1701Z" fill="black"/>
<path d="M13.9113 75.2428C14.0738 75.32 14.2184 75.4164 14.3562 75.5196C14.4952 75.6217 14.6238 75.735 14.7499 75.8507C14.8727 75.9701 14.9935 76.0917 15.1035 76.2245C15.2148 76.3562 15.3196 76.4945 15.4065 76.652L15.3957 76.6634L14.6427 75.9645L13.9004 75.2542L13.9113 75.2428Z" fill="black"/>
<path d="M13.9139 75.2479C13.9791 75.3857 14.018 75.5253 14.0475 75.6656C14.0786 75.8057 14.0944 75.947 14.1067 76.0884C14.1142 76.2303 14.1186 76.3723 14.1075 76.5154C14.0981 76.6584 14.0794 76.8021 14.0347 76.9476L14.0191 76.9487L13.9509 76.0995L13.8984 75.2492L13.9139 75.2479Z" fill="black"/>
<path d="M9.48163 74.1739C9.3324 74.2519 9.18552 74.3277 9.05207 74.4252C8.98175 74.4669 8.91753 74.5182 8.85049 74.5635C8.78627 74.6133 8.72501 74.6665 8.66282 74.7171C8.42124 74.9288 8.20809 75.1699 8.06558 75.4512C7.90948 75.7228 7.80056 76.0255 7.75884 76.3449L7.73462 76.4638L7.72618 76.5851L7.70962 76.8298C7.69962 76.9943 7.71618 77.1592 7.70665 77.3301L7.69133 77.3331C7.67055 77.167 7.64008 77.0015 7.62742 76.8346L7.62398 76.583L7.62305 76.4572L7.63805 76.3322L7.6693 76.0822L7.73368 75.8384C7.7504 75.7555 7.78869 75.6798 7.81994 75.6019C7.85197 75.524 7.8826 75.4454 7.92917 75.3748C8.09199 75.0802 8.32092 74.8237 8.58828 74.6205C8.85658 74.4188 9.15645 74.2585 9.47741 74.1586L9.48163 74.1739Z" fill="white"/>
<path d="M53.4151 68.3089C50.8096 69.2243 48.2291 70.2142 45.6064 71.0807C43.1257 71.9003 40.2108 72.7177 37.5857 72.1452C31.1049 70.7316 36.5895 62.9699 38.551 59.8293C39.7079 57.977 36.7814 56.2764 35.629 58.1214C32.8444 62.5799 27.7749 70.6224 34.2011 74.4324C40.2483 78.0177 48.4882 73.6189 54.3146 71.5718C56.3557 70.8548 55.4772 67.5843 53.4151 68.3089Z" fill="black"/>
<path d="M49.9786 69.087C49.9786 69.087 47.5479 67.7514 49.0479 71.7906C50.6562 76.1214 51.3576 72.6968 51.3576 72.6968L51.9799 73.1932C51.9799 73.1932 50.2008 79.2768 54.5051 79.5519C58.8095 79.8269 57.4314 74.5974 56.2611 71.5228C55.0909 68.4482 54.4705 64.8923 49.9786 69.087Z" fill="#FF558B"/>
<path d="M54.8201 79.6405C54.7163 79.6405 54.6097 79.637 54.5002 79.63C53.4799 79.5648 52.7096 79.1709 52.2108 78.459C51.5335 77.4925 51.4871 76.1042 51.5676 75.1096C51.6423 74.1866 51.837 73.4218 51.8909 73.2221L51.4054 72.8349C51.3223 73.1612 51.0565 74.0205 50.556 74.0589C50.0644 74.0969 49.5489 73.3634 48.9749 71.8178C48.4049 70.2825 48.3297 69.3193 48.7519 68.9549C49.1351 68.624 49.7793 68.901 49.9656 68.9923C51.5512 67.5204 52.7724 66.9143 53.6989 67.1385C54.8715 67.4231 55.4209 68.9596 56.0025 70.5863C56.1105 70.8887 56.2199 71.1942 56.3344 71.495C57.2596 73.9259 58.1194 77.1535 56.9607 78.7248C56.5119 79.3331 55.7928 79.6405 54.8201 79.6405ZM51.3068 72.5563L52.0698 73.1649L52.055 73.2153C52.0453 73.2487 51.0901 76.5877 52.3388 78.3694C52.8091 79.0403 53.5396 79.4119 54.5103 79.4739C55.5884 79.5419 56.3721 79.2597 56.8349 78.6319C57.3395 77.9477 57.9266 76.1177 56.1881 71.5506C56.0734 71.2487 55.9637 70.9423 55.8553 70.639C55.2882 69.0531 54.7525 67.5551 53.6618 67.2903C52.7833 67.0771 51.5959 67.6837 50.032 69.1438L49.9908 69.1824L49.9412 69.1553C49.9339 69.1513 49.2137 68.7627 48.854 69.0732C48.6013 69.2915 48.4427 69.9355 49.1215 71.7634C49.7925 73.5706 50.2695 73.9278 50.5441 73.903C50.9496 73.8719 51.2137 73.0102 51.2813 72.681L51.3068 72.5563Z" fill="black"/>
<path d="M50.857 70.7493C50.5352 69.6795 49.9338 69.1513 49.9277 69.1462L50.0296 69.0277C50.0555 69.0501 50.6709 69.5877 51.0065 70.7043L50.857 70.7493Z" fill="black"/>
<path d="M51.4355 72.7031L51.2798 72.6906C51.3217 72.1664 51.2159 71.9459 51.2148 71.9439L51.3541 71.8728C51.3592 71.8828 51.4816 72.1269 51.4355 72.7031Z" fill="black"/>
<path d="M51.9727 73.1904C51.9825 73.0107 52.017 72.8406 52.0605 72.6737C52.1023 72.5064 52.1584 72.3445 52.2178 72.1839C52.2817 72.025 52.3486 71.8673 52.4298 71.715C52.5095 71.5621 52.598 71.4126 52.7106 71.2726L52.7252 71.2782L52.3634 72.24L51.9872 73.1961L51.9727 73.1904Z" fill="black"/>
<path d="M51.9766 73.1863C52.0794 73.0738 52.1937 72.9849 52.3125 72.9046C52.4305 72.8227 52.5552 72.7547 52.6814 72.6896C52.8098 72.629 52.9397 72.5711 53.0762 72.5272C53.2122 72.4818 53.3522 72.4446 53.5039 72.431L53.5108 72.445L52.7506 72.8297L51.9834 73.2004L51.9766 73.1863Z" fill="black"/>
<path d="M52.6614 77.6953C52.7902 77.8039 52.916 77.9111 53.0566 77.9978C53.1218 78.0471 53.1935 78.0872 53.261 78.1319C53.3315 78.1725 53.4038 78.2089 53.4743 78.2475C53.7617 78.391 54.0656 78.4969 54.38 78.5223C54.6905 78.5638 55.0119 78.5501 55.3232 78.4677L55.4424 78.4451L55.5578 78.4069L55.7906 78.3296C55.9467 78.2765 56.093 78.1988 56.2547 78.1427L56.2633 78.1558C56.1173 78.2379 55.9758 78.3288 55.8262 78.4038L55.5946 78.5023L55.4785 78.5509L55.3571 78.5843L55.114 78.6501L54.8639 78.6829C54.781 78.6988 54.6964 78.6921 54.6124 78.6926C54.5281 78.6924 54.4439 78.6938 54.3609 78.6774C54.0267 78.6382 53.7024 78.5235 53.4132 78.353C53.1249 78.1811 52.863 77.9642 52.6489 77.705L52.6614 77.6953Z" fill="white"/>
<path d="M71.4582 32.6473C71.3761 32.2273 70.7425 32.4393 70.8239 32.8567C71.1278 34.4143 71.3678 36.0087 71.2425 37.5996C71.1255 39.0852 70.3182 40.3157 69.3835 41.4328C68.4759 42.5175 67.5714 43.5541 66.9822 44.8594C66.4282 46.0863 66.2184 47.5247 66.379 48.8602C66.5587 50.3545 67.0934 51.7855 67.48 53.233C67.8885 54.7623 67.9854 56.2456 67.7327 57.8113C67.5213 59.1213 66.9834 60.3304 65.9376 61.1846C64.9087 62.0248 63.6516 62.37 62.3493 62.0672C60.8317 61.7143 59.4905 60.7477 58.378 59.6906C57.7567 59.1 57.2101 58.4353 56.7365 57.721C56.2652 57.0102 55.9571 56.235 55.6414 55.4472C55.4825 55.0507 54.8468 55.2563 55.0072 55.6566C55.2941 56.3726 55.5689 57.0949 55.9686 57.7577C56.3648 58.4147 56.8409 59.0328 57.3567 59.6001C58.3387 60.6797 59.5494 61.6459 60.8809 62.2569C62.1208 62.8258 63.5396 63.0838 64.8461 62.58C66.0005 62.1348 66.9744 61.3029 67.6074 60.2414C68.3585 58.9817 68.5529 57.4033 68.5606 55.9601C68.5692 54.324 68.0352 52.7683 67.595 51.2124C67.1414 49.6091 66.8139 48.0643 67.1741 46.4045C67.5067 44.8708 68.4264 43.5571 69.4394 42.3932C70.4914 41.1847 71.6079 39.8108 71.8466 38.1755C72.1154 36.3352 71.8108 34.4545 71.4582 32.6473Z" fill="black"/>
<path d="M70.6486 29.4134L70.7 31.1895L70.1925 31.2042L70.1411 29.4281C70.1402 29.3937 70.1672 29.365 70.2016 29.3641L70.5846 29.353C70.619 29.352 70.6475 29.3791 70.6486 29.4134Z" fill="#FFD200"/>
<path d="M70.1169 31.2848L70.063 29.4305C70.061 29.3531 70.1221 29.2884 70.1993 29.2859L70.5823 29.2748C70.6546 29.2728 70.7243 29.3341 70.727 29.4111L70.7807 31.2656L70.1169 31.2848ZM70.2198 29.4417L70.2685 31.124L70.6198 31.114L70.5712 29.4316L70.2198 29.4417Z" fill="black"/>
<path d="M71.9235 29.3766L71.9749 31.1527L71.4674 31.1674L71.416 29.3913C71.4151 29.3569 71.4421 29.3281 71.4765 29.3272L71.8595 29.3161C71.8938 29.315 71.9224 29.3422 71.9235 29.3766Z" fill="#FFD200"/>
<path d="M71.3917 31.248L71.338 29.3936C71.3369 29.3562 71.3503 29.3205 71.3761 29.2931C71.4017 29.2658 71.4366 29.2503 71.4741 29.2491L71.8571 29.238C71.9332 29.2345 71.9993 29.2972 72.0018 29.3742V29.3744L72.0555 31.2287L71.3917 31.248ZM71.4947 29.4048L71.5434 31.0872L71.8947 31.0772L71.846 29.3947L71.4947 29.4048Z" fill="black"/>
<path d="M69.5837 30.6948L69.6592 33.2958L72.5016 33.2134L72.4261 30.6123L69.5837 30.6948Z" fill="black"/>
<path d="M69.5859 33.3789L69.5059 30.6217L72.5045 30.5346L72.5845 33.2919L69.5859 33.3789ZM69.6668 30.7734L69.7376 33.2181L72.4236 33.1403L72.3528 30.6956L69.6668 30.7734Z" fill="black"/>
<path d="M66.7707 45.5017C66.8085 46.2587 66.2287 46.8994 65.4752 46.937C65.442 46.9387 65.4085 46.9403 65.3751 46.9387C65.3718 46.9389 65.3718 46.9389 65.3718 46.9389C65.1676 46.9323 64.9744 46.8819 64.7997 46.797C64.7003 46.7484 64.607 46.6864 64.5231 46.6136C64.2441 46.3801 64.0595 46.0316 64.0398 45.6382C64.0225 45.2914 64.1367 44.9681 64.3414 44.7172C64.5739 44.4213 64.9319 44.2263 65.3388 44.206C66.0923 44.1684 66.733 44.7481 66.7707 45.5017Z" fill="#FFD200"/>
<path d="M65.4039 47.0175C65.3931 47.0175 65.3821 47.0173 65.3711 47.0167C65.1594 47.0103 64.9562 46.9598 64.7654 46.8673C64.6601 46.8158 64.5614 46.7503 64.4718 46.6725C64.1682 46.4187 63.9818 46.0429 63.9618 45.6422C63.944 45.288 64.0573 44.942 64.2807 44.6678C64.5339 44.3459 64.9183 44.149 65.3347 44.1282C65.7205 44.1087 66.0896 44.2407 66.3756 44.4993C66.6614 44.7579 66.8294 45.1127 66.8486 45.4978C66.8884 46.2948 66.274 46.9755 65.4789 47.0152C65.4541 47.0164 65.4291 47.0175 65.4039 47.0175ZM65.4077 44.2826C65.386 44.2826 65.3644 44.2831 65.3427 44.2842C64.9712 44.3027 64.6287 44.4781 64.4026 44.7654C64.2029 45.0106 64.102 45.3189 64.1177 45.6343C64.1355 45.9915 64.3017 46.3267 64.5731 46.5536C64.6536 46.6234 64.7408 46.6812 64.8339 46.7267C65.0045 46.8095 65.1864 46.8547 65.3741 46.8606C65.4097 46.8626 65.4407 46.8605 65.4711 46.8589C66.1802 46.8233 66.7283 46.2163 66.6926 45.5055C66.6583 44.8184 66.0882 44.2826 65.4077 44.2826Z" fill="black"/>
<path d="M71.1798 55.3946C71.2177 56.1515 70.6379 56.7922 69.8844 56.8299C69.8511 56.8316 69.8177 56.8331 69.7843 56.8316C69.781 56.8317 69.781 56.8317 69.781 56.8317C69.5767 56.8252 69.3838 56.7747 69.2089 56.6899C69.1095 56.6413 69.0162 56.5792 68.9323 56.5064C68.6532 56.2729 68.4687 55.9245 68.449 55.531C68.4316 55.1843 68.5459 54.861 68.7506 54.61C68.9831 54.3142 69.3411 54.1192 69.748 54.0989C70.5015 54.0612 71.1422 54.6409 71.1798 55.3946Z" fill="#FFD200"/>
<path d="M69.8132 56.9102C69.8023 56.9102 69.7912 56.91 69.7803 56.9094C69.5687 56.9032 69.3655 56.8527 69.1747 56.7599C69.0696 56.7086 68.9708 56.6431 68.8813 56.5655C68.5774 56.3112 68.3909 55.9354 68.3709 55.5349C68.3533 55.1802 68.4666 54.8344 68.69 54.5606C68.943 54.2389 69.3276 54.0418 69.744 54.0209C70.1322 54.0012 70.4989 54.1336 70.7849 54.392C71.0707 54.6506 71.2387 55.0053 71.2577 55.3908C71.2771 55.7776 71.1454 56.1481 70.8868 56.4344C70.6283 56.7206 70.2737 56.8888 69.8881 56.9078C69.8636 56.9091 69.8386 56.9102 69.8132 56.9102ZM69.8178 54.1753C69.7959 54.1753 69.774 54.1757 69.752 54.1768C69.3807 54.1956 69.0382 54.3711 68.8121 54.6583C68.6124 54.9031 68.5113 55.2113 68.527 55.5271C68.5449 55.884 68.711 56.2192 68.9827 56.4464C69.0632 56.5161 69.1504 56.5741 69.2433 56.6194C69.414 56.7024 69.5959 56.7475 69.7835 56.7534C69.8192 56.7553 69.8501 56.7533 69.8806 56.7517C70.2244 56.7345 70.5406 56.5847 70.771 56.3295C71.0018 56.0742 71.1191 55.7435 71.1019 55.3985V55.3983C71.0847 55.0549 70.935 54.7384 70.68 54.508C70.4416 54.292 70.1375 54.1753 69.8178 54.1753Z" fill="black"/>
<path d="M64.0758 60.7734C64.1136 61.5304 63.5339 62.1711 62.7804 62.2087C62.7471 62.2104 62.7137 62.212 62.6803 62.2104C62.677 62.2106 62.677 62.2106 62.677 62.2106C62.4727 62.204 62.2796 62.1536 62.1049 62.0687C62.0055 62.0203 61.9122 61.9581 61.8283 61.8853C61.5492 61.6518 61.3647 61.3033 61.345 60.9099C61.3276 60.5631 61.4419 60.2398 61.6466 59.9889C61.8791 59.693 62.2371 59.498 62.644 59.4777C63.3975 59.4402 64.0382 60.0199 64.0758 60.7734Z" fill="#FFD200"/>
<path d="M62.7092 62.2892C62.6983 62.2892 62.6872 62.289 62.6763 62.2884C62.465 62.2822 62.2619 62.2318 62.0707 62.139C61.9657 62.0876 61.867 62.0223 61.7771 61.9445C61.4734 61.6902 61.2869 61.3143 61.2669 60.9139C61.2493 60.5592 61.3626 60.2134 61.586 59.9396C61.839 59.6179 62.2236 59.4208 62.64 59.3999C63.0271 59.3804 63.3951 59.5126 63.6809 59.771C63.9667 60.0296 64.1347 60.3844 64.1537 60.7699V60.7697C64.1731 61.1566 64.0414 61.5271 63.7828 61.8134C63.5243 62.0997 63.1697 62.2678 62.7841 62.2869C62.7594 62.2881 62.7344 62.2892 62.7092 62.2892ZM62.7138 59.5543C62.6919 59.5543 62.67 59.5548 62.648 59.5559C62.2767 59.5746 61.9342 59.7501 61.7081 60.0373C61.5084 60.2822 61.4073 60.5903 61.423 60.9063C61.4409 61.2632 61.607 61.5984 61.8785 61.8256C61.9592 61.8953 62.0465 61.9532 62.1393 61.9985C62.3103 62.0815 62.492 62.1267 62.6794 62.1325C62.7152 62.134 62.7458 62.1323 62.7764 62.1307C63.1204 62.1136 63.4366 61.9637 63.667 61.7085C63.8978 61.4532 64.0153 61.1225 63.9979 60.7775V60.7774C63.9807 60.4339 63.831 60.1175 63.576 59.887C63.3376 59.671 63.0335 59.5543 62.7138 59.5543Z" fill="black"/>
<path d="M61.9442 68.0348C57.3683 67.371 52.5766 66.5408 47.5909 65.5063C40.5074 64.0318 33.9172 62.3287 27.8564 60.5156L31.0697 59.3288L22.2979 57.7849C23.6479 57.5737 25.6138 57.4487 26.7503 57.1111C23.8604 56.4733 20.5064 55.5144 16.8902 54.0571C12.5917 52.3264 9.02907 50.335 6.21338 48.5069C7.71194 48.1245 9.58521 47.4826 11.5821 46.37C12.7692 45.709 13.7771 45.0067 14.6098 44.3467C12.1618 44.5928 9.71053 44.8389 7.25924 45.0885C9.78163 43.7891 12.5725 42.1754 15.4969 40.1606C15.5227 40.1426 15.5519 40.1243 15.5777 40.1063C15.7327 39.9984 15.8879 39.8902 16.0462 39.7821C16.1657 39.6993 16.282 39.6166 16.4014 39.5304C16.6727 39.3397 16.9438 39.1456 17.2147 38.9481C20.3529 36.662 23.0124 34.3562 25.2255 32.2199C23.2415 31.9847 21.2576 31.7497 19.2735 31.5146C21.8759 30.278 24.6799 28.794 27.5996 27.0168C28.2517 26.6199 28.8871 26.2238 29.5054 25.8219C29.6868 25.7058 29.8682 25.5899 30.0495 25.4705C30.0561 25.4669 30.0592 25.4633 30.0658 25.4597C30.3408 25.2787 30.616 25.0979 30.8844 24.9173C31.7771 24.3177 32.6397 23.7197 33.4659 23.1269C33.537 23.0765 33.6078 23.0228 33.6789 22.9725C33.8853 22.8218 34.0851 22.6748 34.285 22.5277C34.3205 22.5026 34.3527 22.4776 34.3881 22.4524C35.2843 21.7892 36.1406 21.1314 36.9507 20.4859C35.0516 20.2097 33.1557 19.9335 31.2568 19.6606C33.9518 18.8073 36.9601 17.6641 40.145 16.111C42.1747 15.1204 44.0153 14.0924 45.6693 13.0737C44.306 12.9479 42.9457 12.8221 41.5823 12.6963C43.4914 12.0996 45.5084 11.3903 47.6054 10.5433C48.3755 10.2341 49.1251 9.91579 49.8547 9.59858L49.8545 9.5953C52.3046 8.52021 54.5415 7.39544 56.5582 6.27847C56.499 6.36504 55.0474 8.49006 54.466 13.1087C54.2121 15.117 54.1253 17.595 54.3847 20.5806C53.6928 19.1778 52.9977 17.775 52.3025 16.3724C52.6305 18.6559 53.1406 21.2344 53.9445 24.0122C53.9489 24.0321 53.9534 24.0552 53.9611 24.0749C54.0094 24.2396 54.0578 24.4043 54.106 24.5657L54.1061 24.569C54.1141 24.5954 54.1222 24.6249 54.1303 24.6513C54.2186 24.9478 54.3099 25.2341 54.4013 25.5236C55.3611 28.541 56.4476 30.8165 57.5301 33.0156C56.3311 31.5646 55.1628 30.4596 53.9636 29.0053C54.3766 31.3847 54.9291 33.9444 55.6694 36.6486C56.7321 40.5232 57.9846 43.9773 59.2576 46.9791C57.8491 45.6154 56.4404 44.2517 55.0318 42.8881C55.19 43.9799 55.3881 45.1335 55.6322 46.3379C55.7339 46.8342 55.8427 47.3403 55.962 47.8559C55.9967 48.0146 56.0347 48.1732 56.0728 48.335C56.0775 48.3615 56.0855 48.3878 56.0903 48.4176C56.1491 48.6553 56.2078 48.8964 56.2702 49.1407C56.2705 49.1474 56.2741 49.1505 56.2744 49.1572C56.4255 49.7715 56.5905 50.3983 56.7695 51.0346C57.1395 52.3533 57.54 53.6101 57.9569 54.7961C57.9689 54.8356 57.9841 54.8716 57.9961 54.9111C58.0588 55.0952 58.1213 55.276 58.1871 55.4532C58.2414 55.6043 58.2957 55.7552 58.3535 55.9062C58.8874 57.3604 59.4428 58.7066 59.9991 59.9389C58.6362 58.8872 57.2731 57.8321 55.9133 56.7769C56.3555 58.4028 57.0612 60.4167 58.213 62.5955C59.4347 64.9077 60.7918 66.7117 61.9442 68.0348Z" fill="#006658"/>
<path d="M62.1414 68.1423L61.933 68.1122C57.1524 67.4185 52.3217 66.5677 47.575 65.5826C40.9165 64.1967 34.2747 62.517 27.8338 60.5905L27.6096 60.5233L30.7713 59.3555L21.8213 57.7801L22.2857 57.7074C22.7439 57.6357 23.2636 57.5751 23.814 57.5107C24.7419 57.4024 25.6976 57.2907 26.4214 57.1174C23.176 56.3836 19.9613 55.3788 16.8608 54.1293C13.1386 52.6306 9.5419 50.7609 6.17054 48.572L6.021 48.475L6.19382 48.4309C8.06507 47.9534 9.8649 47.2369 11.5439 46.3014C12.5207 45.7576 13.4633 45.1356 14.349 44.4511L14.236 44.4625C11.9149 44.6956 9.59066 44.9291 7.26688 45.1656L6.85638 45.2074L7.22328 45.0184C10.0743 43.5497 12.8431 41.8935 15.4525 40.0957L15.5332 40.0416C15.6883 39.9337 15.8435 39.8254 16.0021 39.7171C16.1209 39.6349 16.2367 39.5524 16.3556 39.4664C16.6273 39.2755 16.8981 39.0817 17.1685 38.8844C19.936 36.8686 22.5876 34.6462 25.0522 32.2774L18.995 31.5596L19.2397 31.4435C22.072 30.0977 24.8708 28.5857 27.5588 26.9495C28.272 26.5152 28.8949 26.1247 29.4627 25.7557C29.6443 25.6396 29.8254 25.5238 30.0064 25.4045C30.0159 25.3978 30.0207 25.3947 30.0268 25.3909C30.2975 25.2128 30.5725 25.0322 30.8406 24.8517C31.7349 24.2512 32.6027 23.6494 33.4201 23.0628C33.4557 23.0376 33.4907 23.0118 33.526 22.9861C33.5616 22.9598 33.5976 22.9336 33.6335 22.9081C33.839 22.7582 34.0389 22.6112 34.2387 22.4641L34.343 22.388C35.1708 21.7753 35.9839 21.1528 36.7606 20.5363L36.0098 20.4273C34.4214 20.1961 32.8347 19.9655 31.2457 19.7372L30.9071 19.6891L31.2329 19.5859C34.274 18.6231 37.2608 17.4301 40.1106 16.0407C41.9314 15.1518 43.7193 14.1733 45.4279 13.1298L41.186 12.7382L41.5587 12.6216C43.5892 11.9869 45.6135 11.2634 47.5759 10.4708C48.2422 10.2033 48.9426 9.90923 49.777 9.54717L49.8229 9.52373C52.1064 8.52162 54.3597 7.40669 56.52 6.21003L56.8088 6.05017L56.6226 6.32254C56.4691 6.54693 55.1068 8.64304 54.5433 13.1186C54.2566 15.3856 54.2294 17.8939 54.4624 20.5738L54.4983 20.9879L54.3144 20.6149C53.6954 19.3603 53.0737 18.1054 52.4519 16.8506C52.8213 19.2722 53.3481 21.6717 54.0192 23.9904C54.0248 24.0161 54.0281 24.0325 54.0334 24.0465C54.0839 24.2174 54.1324 24.382 54.1805 24.5434L54.2045 24.6282C54.2831 24.8917 54.3635 25.1465 54.4446 25.4028L54.4752 25.5002C55.417 28.461 56.4905 30.7284 57.5997 32.9811L57.8945 33.5797L57.4693 33.0653C56.8743 32.3454 56.2766 31.6996 55.6984 31.075C55.1734 30.5078 54.6324 29.9232 54.0906 29.2805C54.5275 31.7438 55.0835 34.2141 55.744 36.6281C56.7069 40.1387 57.9131 43.6108 59.3289 46.9486L59.4793 47.3032L55.1418 43.1042C55.2995 44.1632 55.4896 45.2449 55.7079 46.3226C55.8198 46.868 55.9275 47.364 56.0373 47.8385C56.0658 47.9687 56.0963 48.0978 56.1272 48.2287L56.1481 48.3173C56.1509 48.3325 56.1534 48.3429 56.1561 48.3537C56.1599 48.3703 56.1639 48.3875 56.1667 48.4056L56.2038 48.5545C56.2499 48.7414 56.2964 48.9305 56.345 49.1216L56.3463 49.1263C56.3486 49.1327 56.351 49.1422 56.3514 49.1538C56.501 49.7552 56.6674 50.3859 56.8437 51.0133C57.1979 52.2756 57.5968 53.5396 58.0297 54.77C58.0364 54.7919 58.0427 54.8094 58.0491 54.827C58.0563 54.8472 58.0636 54.8674 58.0699 54.8885C58.1316 55.0694 58.1939 55.2494 58.2592 55.426C58.3138 55.5773 58.3677 55.7279 58.4254 55.8784C58.9305 57.2541 59.4836 58.6092 60.0692 59.9068L60.1978 60.1919L59.9502 60.0007C58.6494 58.9969 57.3484 57.9901 56.0503 56.983C56.5907 58.9053 57.3407 60.7802 58.2811 62.5591C59.3087 64.5038 60.5608 66.3289 62.0024 67.9837L62.1414 68.1423ZM28.1031 60.5078C34.4695 62.4052 41.0299 64.0608 47.6067 65.4298C52.2817 66.3999 57.0382 67.2398 61.7478 67.9272C60.3561 66.3056 59.144 64.525 58.1435 62.6317C57.1607 60.7728 56.3849 58.81 55.8373 56.7972L55.7759 56.5717L55.9606 56.7152C57.2384 57.7068 58.5193 58.6981 59.8 59.687C59.2598 58.4725 58.7488 57.2113 58.2796 55.9332C58.2221 55.7827 58.1674 55.6312 58.113 55.4796C58.0474 55.3026 57.9847 55.1211 57.9216 54.9363C57.9152 54.9152 57.9089 54.8977 57.9025 54.88C57.8953 54.8599 57.888 54.8397 57.8817 54.8186C57.4489 53.5884 57.0488 52.3212 56.6936 51.0557C56.5168 50.4267 56.35 49.7941 56.198 49.176C56.1972 49.1733 56.1944 49.166 56.1928 49.1553C56.1444 48.9655 56.0983 48.7777 56.0523 48.592L56.0141 48.4367C56.0105 48.4158 56.0073 48.4025 56.0044 48.3895C56.0009 48.3756 55.998 48.362 55.9956 48.3484L55.9756 48.2646C55.9444 48.1328 55.9136 48.0028 55.8853 47.8726C55.7754 47.3977 55.6672 46.9005 55.5551 46.3537C55.3206 45.1958 55.1185 44.0335 54.9541 42.8992L54.9213 42.6728L59.0367 46.6567C57.6822 43.421 56.5246 40.0632 55.5936 36.6692C54.9059 34.1563 54.3314 31.5824 53.8864 29.0187L53.8359 28.7279L54.0236 28.9556C54.625 29.685 55.2292 30.3377 55.8134 30.969C56.2608 31.4525 56.7202 31.9487 57.1815 32.4826C56.1686 30.4068 55.1924 28.2702 54.3264 25.5475L54.2956 25.45C54.2144 25.193 54.1338 24.9375 54.0552 24.6737L54.0281 24.579C53.9808 24.4204 53.9333 24.2588 53.8859 24.0969C53.8797 24.0816 53.874 24.0568 53.8694 24.0344C53.151 21.5522 52.5977 18.9784 52.225 16.3837L52.1556 15.9005L52.3725 16.3379C53.0069 17.6178 53.6414 18.8981 54.2733 20.178C54.0764 17.6408 54.115 15.2612 54.3885 13.099C54.8654 9.31012 55.9159 7.20433 56.3327 6.49192C54.2641 7.62748 52.1134 8.68757 49.935 9.64546L49.9351 9.64562L49.8859 9.67046C49.0298 10.0425 48.3142 10.343 47.6346 10.616C45.7879 11.3617 43.8859 12.0467 41.9758 12.6543L45.9098 13.0174L45.7104 13.1403C43.937 14.2324 42.0762 15.2554 40.1795 16.1811C37.4241 17.5248 34.5406 18.6848 31.6043 19.6316C33.0808 19.8441 34.5559 20.0586 36.0323 20.2732L37.1407 20.4343L36.9996 20.5468C36.1787 21.2011 35.316 21.8633 34.4348 22.5154L34.3305 22.5913C34.1314 22.7379 33.9314 22.885 33.7249 23.0358C33.6888 23.0612 33.6538 23.087 33.6185 23.1128C33.5827 23.139 33.547 23.1653 33.511 23.1908C32.6927 23.778 31.8235 24.3807 30.928 24.9822C30.6594 25.163 30.3842 25.3439 30.1087 25.525C30.0995 25.5314 30.0945 25.5349 30.0878 25.5388C29.9112 25.6555 29.7295 25.7716 29.5477 25.8877C28.9791 26.2574 28.355 26.6487 27.6404 27.0836C25.0252 28.6757 22.3048 30.1502 19.551 31.4689L25.3983 32.162L25.2799 32.2762C22.7766 34.6929 20.0785 36.9589 17.2608 39.0116C16.9897 39.2092 16.7183 39.4036 16.4465 39.5944C16.3276 39.6804 16.2109 39.7633 16.0912 39.8465C15.9324 39.9548 15.7776 40.0627 15.6229 40.1706L15.5419 40.2248C13.0378 41.9499 10.3878 43.5447 7.65894 44.9692C9.84708 44.7469 12.0352 44.527 14.2207 44.3075L14.8676 44.2424L14.6586 44.4081C13.705 45.1638 12.6828 45.8468 11.6204 46.4383C9.98131 47.3518 8.22758 48.0576 6.40525 48.5381C9.72504 50.68 13.2616 52.5122 16.9195 53.9848C20.1115 55.2713 23.4247 56.2973 26.7673 57.035L27.0625 57.1002L26.7728 57.1863C26.0143 57.4115 24.9052 57.5412 23.8327 57.6663C23.4701 57.7088 23.1205 57.7495 22.7939 57.7931L31.3683 59.3022L28.1031 60.5078Z" fill="black"/>
<path d="M44.7694 20.7889C44.6931 20.7889 44.6234 20.7739 44.5628 20.7406C44.1323 20.5045 44.2603 19.6783 44.3723 19.2141C44.0435 19.5345 43.4138 20.0299 42.9281 19.6983C42.8306 19.6316 42.7733 19.5339 42.7575 19.408C42.6756 18.744 43.8527 17.4083 43.9029 17.3517L44.0198 17.4555C43.6912 17.826 42.8516 18.8957 42.9127 19.3889C42.9225 19.4695 42.9564 19.5286 43.0163 19.5692C43.5733 19.9504 44.4631 18.8903 44.472 18.8795L44.7302 18.5684L44.6064 18.9534C44.4823 19.3397 44.2461 20.3888 44.6377 20.6037C45.0341 20.8212 46.1401 19.8774 46.533 19.4952L46.6419 19.6072C46.5055 19.74 45.4074 20.7889 44.7694 20.7889Z" fill="black"/>
<path d="M48.8379 31.2958C48.7908 31.2958 48.7458 31.2886 48.7035 31.273C48.2425 31.1039 48.2453 30.2679 48.2867 29.7919C48.0098 30.1579 47.461 30.7415 46.9313 30.4867C46.8247 30.4354 46.7533 30.3474 46.7193 30.2252C46.5388 29.5811 47.5029 28.084 47.5439 28.0205L47.6751 28.1057C47.4056 28.5212 46.7355 29.7046 46.8697 30.1832C46.8918 30.2613 46.934 30.3146 46.9991 30.346C47.6082 30.6386 48.3281 29.458 48.3355 29.4461L48.5441 29.1003L48.4794 29.4989C48.4146 29.8993 48.338 30.9725 48.7572 31.1261C49.1843 31.2827 50.1341 30.1831 50.4653 29.7465L50.5899 29.8408C50.4697 29.9991 49.4674 31.2958 48.8379 31.2958Z" fill="black"/>
<path d="M47.6513 51.5212C47.6499 51.5212 47.6485 51.5212 47.6473 51.5212C47.1563 51.5154 46.8805 50.7263 46.7608 50.2639C46.6215 50.7013 46.3006 51.4346 45.7144 51.3707C45.5969 51.3579 45.5005 51.2987 45.4274 51.1949C45.0425 50.6478 45.4525 48.9147 45.47 48.8413L45.6221 48.8777C45.5066 49.3594 45.2692 50.6986 45.5552 51.1051C45.6019 51.1715 45.6596 51.2074 45.7315 51.2154C46.3982 51.2919 46.6887 49.9354 46.6914 49.9217L46.7728 49.5256L46.8448 49.9236C46.917 50.3228 47.2024 51.3598 47.6491 51.3651C47.6501 51.3651 47.651 51.3651 47.6518 51.3651C48.1038 51.3651 48.6334 50.0159 48.7997 49.4949L48.9486 49.5426C48.8838 49.7453 48.2984 51.5212 47.6513 51.5212Z" fill="black"/>
<path d="M22.989 42.0849C22.9382 42.0849 22.8899 42.0767 22.8448 42.0592C22.3877 41.8801 22.4086 41.0444 22.4602 40.5695C22.1757 40.9292 21.6145 41.5016 21.0903 41.2347C20.9849 41.1811 20.9156 41.0917 20.884 40.9688C20.7174 40.3209 21.7139 38.8452 21.7564 38.7827L21.8855 38.8705C21.6072 39.28 20.9117 40.4487 21.0353 40.93C21.0556 41.0086 21.0968 41.0628 21.1612 41.0955C21.7634 41.401 22.5091 40.2365 22.5166 40.2248L22.7327 39.8838L22.6594 40.2807C22.5858 40.6797 22.4862 41.7507 22.9021 41.9135C23.3225 42.0792 24.2991 41.0005 24.6396 40.5712L24.762 40.6683C24.6391 40.8231 23.6192 42.0849 22.989 42.0849Z" fill="black"/>
<path d="M32.5853 58.1167C32.5347 58.1167 32.4864 58.1084 32.4412 58.0909C31.984 57.9117 32.0051 57.0761 32.0567 56.6014C31.7721 56.9613 31.2108 57.5335 30.6866 57.2665C30.5811 57.2129 30.5117 57.1235 30.4802 57.0005C30.3137 56.3526 31.3101 54.8767 31.3526 54.8142L31.4816 54.9021C31.2033 55.3116 30.5078 56.4803 30.6316 56.9616C30.6517 57.0404 30.693 57.0946 30.7575 57.1274C31.3598 57.433 32.1056 56.2684 32.1129 56.2567L32.3292 55.9156L32.2558 56.3126C32.1822 56.7116 32.0823 57.7825 32.4984 57.9454C32.9171 58.1104 33.8953 57.0322 34.2359 56.603L34.3583 56.7C34.2356 56.8547 33.2154 58.1167 32.5853 58.1167Z" fill="black"/>
<path d="M51.4574 62.5617C51.4553 62.5617 51.4536 62.5617 51.4516 62.5617C50.9605 62.5536 50.6884 61.7631 50.571 61.3001C50.4298 61.7365 50.1004 62.4674 49.5194 62.4019C49.4019 62.3884 49.3056 62.3288 49.2331 62.2245C48.8509 61.6754 49.2695 59.9447 49.2875 59.8712L49.4392 59.9084C49.3213 60.3895 49.0775 61.7275 49.3614 62.1351C49.4078 62.2019 49.4653 62.2381 49.5372 62.2464C50.2093 62.3225 50.5006 60.9708 50.5035 60.9572L50.587 60.5624L50.6568 60.9599C50.7272 61.3596 51.0075 62.3981 51.4542 62.4055C51.4556 62.4055 51.4569 62.4055 51.458 62.4055C51.9097 62.4055 52.4451 61.0608 52.6139 60.541L52.7625 60.5892C52.6965 60.7916 52.1034 62.5616 51.4574 62.5617Z" fill="black"/>
<path d="M58.9769 5.30277L60.5497 0.710054L56.6477 3.54419L52.6852 0.414093L54.7061 5.01602L49.9734 7.80218L54.2189 7.52372C52.8493 8.22425 51.394 8.91946 49.8545 9.59514L49.8546 9.59842C50.2017 10.1894 50.7511 10.9476 51.5945 11.6375C52.6438 12.501 53.7204 12.9085 54.466 13.1085C54.7343 10.9771 55.1874 9.38294 55.604 8.26894L56.162 12.6641L57.8676 7.7139L62.6985 8.28097L58.9769 5.30277Z" fill="#FFD200"/>
<path d="M54.5322 13.2073L54.4454 13.184C53.3671 12.8945 52.3912 12.3944 51.5446 11.6978C50.8448 11.1256 50.2534 10.4324 49.7869 9.63796L49.7773 9.6214L49.774 9.54842L49.8227 9.52358C51.1747 8.93025 52.5258 8.29285 53.8437 7.62655L49.6499 7.90157L54.6064 4.98384L52.4875 0.158295L56.6495 3.44606L60.7036 0.501603L59.0686 5.27605L62.96 8.39052L57.9209 7.79906L56.1268 13.0067L55.5673 8.5996C55.0969 9.93689 54.7528 11.4551 54.5434 13.1186L54.5322 13.2073ZM49.9652 9.63187C50.4154 10.3797 50.9797 11.034 51.6438 11.5772C52.4504 12.2408 53.3772 12.7224 54.3998 13.0095C54.628 11.2423 55.0085 9.63874 55.5307 8.2416L55.6416 7.94517L56.1973 12.3221L57.8142 7.62905L62.4367 8.17175L58.8852 5.32965L60.3956 0.918668L56.6456 3.64232L52.8828 0.669898L54.8058 5.04853L50.2964 7.70281L54.5912 7.42122L54.2543 7.59358C52.8523 8.31036 51.4097 8.99588 49.9652 9.63187Z" fill="black"/>
<path d="M54.1302 24.6513C53.3464 24.8878 52.5508 25.0879 51.7497 25.245C51.3065 25.3408 50.8626 25.4197 50.4146 25.4856C50.2952 25.505 50.1757 25.5209 50.0561 25.537C46.9651 25.9589 43.7794 25.7571 40.7235 25.1444C39.2715 24.8526 37.8022 24.5482 36.3894 24.1041C35.4521 23.81 34.5503 23.4239 33.6787 22.9726C33.8851 22.822 34.085 22.6749 34.2849 22.5279C35.2135 22.9829 36.1752 23.3628 37.182 23.6433C38.0734 23.8896 38.9704 24.1121 39.8761 24.3076C40.3119 24.3994 40.7441 24.4848 41.1824 24.5598C41.1857 24.5596 41.1857 24.5596 41.1857 24.5596C42.8116 24.8528 44.4522 25.0382 46.0989 25.0795C48.7665 25.1467 51.3983 24.7645 53.9446 24.0121C53.9489 24.0319 53.9535 24.055 53.9611 24.0747C54.0094 24.2394 54.0578 24.4041 54.106 24.5656L54.1061 24.5688C54.1141 24.5952 54.1222 24.6249 54.1302 24.6513Z" fill="black"/>
<path d="M42.1205 23.1947C42.1582 23.9491 41.5772 24.5912 40.8228 24.629C40.0683 24.6667 39.4263 24.0857 39.3885 23.3312C39.3508 22.5768 39.9318 21.9347 40.6862 21.8969C41.4408 21.8592 42.0829 22.4402 42.1205 23.1947Z" fill="#FFD200"/>
<path d="M40.7528 24.7089C40.394 24.7089 40.0529 24.5776 39.7847 24.3351C39.4985 24.076 39.3302 23.7207 39.3109 23.3352C39.2916 22.9493 39.4236 22.5792 39.6827 22.2929C39.9418 22.0065 40.2971 21.8382 40.6826 21.8189C41.4747 21.7797 42.1591 22.3945 42.1988 23.1906C42.2387 23.9869 41.6232 24.6671 40.827 24.7068C40.802 24.7082 40.7773 24.7089 40.7528 24.7089ZM40.7554 21.9733C40.7339 21.9733 40.7122 21.9738 40.6904 21.9749C40.3463 21.9921 40.0296 22.1423 39.7985 22.3977C39.5674 22.6532 39.4496 22.9833 39.4667 23.3272C39.4839 23.6713 39.6341 23.9882 39.8896 24.2191C40.1449 24.4504 40.4739 24.5674 40.8189 24.5509C41.5293 24.5154 42.0782 23.9088 42.0427 23.1986C42.0084 22.5101 41.4374 21.9733 40.7554 21.9733Z" fill="black"/>
<path d="M52.6557 26.4657C52.6934 27.2201 52.1124 27.8622 51.3579 27.9C50.6035 27.9377 49.9614 27.3567 49.9236 26.6023C49.8859 25.8478 50.4669 25.2058 51.2214 25.1679C51.976 25.1301 52.618 25.7113 52.6557 26.4657Z" fill="#FFD200"/>
<path d="M51.2887 27.9797C50.5244 27.9797 49.8842 27.3778 49.8456 26.606C49.8057 25.8099 50.4213 25.1297 51.2174 25.0898C52.0114 25.0489 52.6938 25.6653 52.7336 26.4616C52.7735 27.258 52.158 27.9382 51.3618 27.9779C51.3373 27.9793 51.3129 27.9797 51.2887 27.9797ZM51.2902 25.2444C51.2687 25.2444 51.2469 25.2448 51.2252 25.2459C50.5149 25.2817 49.9659 25.8882 50.0014 26.5982C50.0372 27.3084 50.6481 27.8579 51.3537 27.8221C52.064 27.7864 52.613 27.18 52.5775 26.4698C52.5431 25.7811 51.9722 25.2444 51.2902 25.2444Z" fill="black"/>
<path d="M58.1866 55.453C55.1701 55.5604 52.1456 55.5777 49.1326 55.4174C46.2233 55.2619 43.3279 54.9186 40.4827 54.3053C40.0637 54.2159 39.6443 54.1198 39.2248 54.0172C39.1876 54.009 39.1538 54.0006 39.1165 53.9892C35.9753 53.2068 32.9527 52.0576 30.0198 50.6931C27.056 49.3137 24.1901 47.6184 21.5344 45.7152C21.3089 45.5527 21.0869 45.3899 20.8647 45.2239C20.5834 45.0141 20.3087 44.8005 20.0337 44.5836C20.0304 44.5837 20.0304 44.5837 20.0302 44.5805C19.2538 43.9607 18.5095 43.3127 17.7963 42.623C16.9916 41.8374 16.2412 41.0025 15.4971 40.1606C15.5229 40.1426 15.5521 40.1243 15.5779 40.1063C15.7329 39.9984 15.888 39.8902 16.0463 39.7821C16.8786 40.7166 17.7207 41.6473 18.6356 42.4975C19.9745 43.7376 21.418 44.8622 22.933 45.8796C24.7455 47.0961 26.6269 48.2222 28.5691 49.2249L28.5725 49.228C28.7753 49.3382 28.981 49.4416 29.1868 49.5449C32.8078 51.3663 36.6325 52.783 40.5935 53.6481C44.0305 54.3956 47.5309 54.7388 51.0459 54.8405L51.0491 54.8403C51.6386 54.861 52.2241 54.8719 52.8126 54.876C52.816 54.8791 52.8158 54.8758 52.8158 54.8758C54.5314 54.8903 56.2447 54.8582 57.9564 54.7961C57.9684 54.8357 57.9836 54.8716 57.9956 54.9111C58.0585 55.0952 58.121 55.2758 58.1866 55.453Z" fill="black"/>
<path d="M30.8544 48.1411C30.8921 48.8955 30.3111 49.5376 29.5567 49.5754C28.8022 49.613 28.1602 49.0321 28.1223 48.2776C28.0847 47.5232 28.6657 46.8811 29.4201 46.8433C30.1745 46.8055 30.8168 47.3866 30.8544 48.1411Z" fill="#FFD200"/>
<path d="M29.4874 49.6551C28.7231 49.6551 28.0829 49.0532 28.0443 48.2814C28.025 47.8956 28.1572 47.5255 28.4162 47.2391C28.6753 46.9527 29.0307 46.7844 29.4162 46.7652C30.2083 46.7258 30.8927 47.3408 30.9324 48.137C30.9722 48.9333 30.3567 49.6135 29.5606 49.6532C29.5362 49.6544 29.5116 49.6551 29.4874 49.6551ZM29.4891 46.9197C29.4676 46.9197 29.4459 46.9202 29.4241 46.9213C29.0801 46.9385 28.7632 47.0886 28.5322 47.3441C28.3011 47.5996 28.1833 47.9296 28.2003 48.2736C28.2361 48.9839 28.845 49.5343 29.5526 49.4974C30.263 49.4618 30.8119 48.8553 30.7764 48.1451C30.7419 47.4565 30.1709 46.9197 29.4891 46.9197Z" fill="black"/>
<path d="M40.9033 55.2235C40.9409 55.9779 40.3599 56.62 39.6055 56.6578C38.8511 56.6955 38.209 56.1145 38.1712 55.3601C38.1335 54.6056 38.7145 53.9636 39.4689 53.9257C40.2234 53.8879 40.8654 54.4691 40.9033 55.2235Z" fill="#FFD200"/>
<path d="M39.5362 56.7375C38.7716 56.7375 38.1316 56.1356 38.0931 55.364C38.0533 54.5677 38.6688 53.8874 39.4648 53.8478C40.2593 53.8053 40.9413 54.4233 40.981 55.2194C41.0209 56.0157 40.4054 56.696 39.6094 56.7356C39.5848 56.7369 39.5604 56.7375 39.5362 56.7375ZM39.5376 54.0021C39.5161 54.0021 39.4943 54.0026 39.4726 54.0037C38.7624 54.0393 38.2135 54.6458 38.2489 55.356C38.2846 56.0661 38.8916 56.6134 39.6012 56.5797C40.3114 56.5441 40.8604 55.9376 40.8249 55.2274C40.7905 54.5389 40.2196 54.0021 39.5376 54.0021Z" fill="black"/>
<path d="M53.3183 53.7476C53.356 54.502 52.775 55.1441 52.0205 55.1819C51.2661 55.2196 50.624 54.6386 50.5862 53.8842C50.5485 53.1297 51.1295 52.4877 51.884 52.4498C52.6384 52.4122 53.2805 52.9932 53.3183 53.7476Z" fill="#FFD200"/>
<path d="M51.9505 55.2616C51.5915 55.2616 51.2503 55.1304 50.9821 54.8878C50.6957 54.6288 50.5274 54.2736 50.5082 53.8881C50.4683 53.0918 51.0839 52.4116 51.88 52.3719C52.6715 52.3317 53.3565 52.9474 53.3962 53.7435C53.4361 54.5399 52.8206 55.2201 52.0244 55.2598C51.9995 55.261 51.9749 55.2616 51.9505 55.2616ZM51.953 52.5263C51.9314 52.5263 51.9097 52.5267 51.888 52.5278C51.1776 52.5633 50.6287 53.1699 50.6641 53.8801C50.6813 54.224 50.8315 54.5408 51.087 54.7721C51.3423 55.003 51.6706 55.1201 52.0164 55.1038C52.7268 55.0682 53.2757 54.4617 53.2403 53.7515C53.2057 53.0632 52.6348 52.5263 51.953 52.5263Z" fill="black"/>
<path d="M21.0444 45.8369C21.082 46.5914 20.501 47.2335 19.7466 47.2713C18.9922 47.3089 18.3501 46.728 18.3123 45.9735C18.2746 45.2191 18.8556 44.577 19.61 44.5392C20.3645 44.5014 21.0067 45.0825 21.0444 45.8369Z" fill="#FFD200"/>
<path d="M19.6773 47.351C18.9127 47.3511 18.2727 46.7491 18.2343 45.9774C18.1944 45.1811 18.8099 44.5009 19.6059 44.4612C20.4002 44.4189 21.0823 45.0367 21.1221 45.8329C21.1415 46.2187 21.0095 46.5889 20.7504 46.8752C20.4913 47.1616 20.136 47.3299 19.7505 47.3491C19.7259 47.3504 19.7016 47.351 19.6773 47.351ZM19.6787 44.6156C19.6572 44.6156 19.6355 44.6161 19.6137 44.6172C18.9035 44.6528 18.3546 45.2593 18.39 45.9695C18.4257 46.6797 19.0332 47.2305 19.7423 47.1932C20.0864 47.176 20.4032 47.0258 20.6343 46.7703C20.8656 46.5148 20.9832 46.1848 20.966 45.8409C20.9317 45.1525 20.3607 44.6156 19.6787 44.6156Z" fill="black"/>
<path d="M56.0902 48.4177C56.1489 48.6553 56.2077 48.8964 56.27 49.1407C54.8158 48.605 53.4224 47.9459 52.062 47.2116C50.7016 46.4773 49.372 45.6913 48.0795 44.8467C47.4993 44.4745 46.9285 44.0886 46.3669 43.6888C43.6579 41.7885 41.1271 39.6418 38.8181 37.2535C35.3988 33.7171 32.4273 29.7741 29.5054 25.8219C29.6868 25.7058 29.8682 25.5899 30.0495 25.4705C30.056 25.4669 30.0592 25.4633 30.0657 25.4597C31.514 27.4164 32.9719 29.366 34.5008 31.2617C36.2359 33.408 38.0101 35.529 39.9725 37.4733C41.8787 39.3636 43.939 41.126 46.1042 42.7127C48.3391 44.3559 50.7475 45.7934 53.2112 47.0641C54.062 47.4996 54.9304 47.8875 55.8136 48.2344C55.8989 48.2701 55.9875 48.3025 56.0727 48.3351C56.2703 48.4122 56.4646 48.4861 56.6622 48.5597C56.4578 48.553 56.2649 48.5025 56.0902 48.4177Z" fill="black"/>
<path d="M48.0878 44.9416C48.1255 45.696 47.5445 46.3381 46.7901 46.3759C46.0356 46.4136 45.3936 45.8326 45.3557 45.0782C45.3181 44.3237 45.8991 43.6816 46.6535 43.6438C47.4079 43.6062 48.0502 44.1871 48.0878 44.9416Z" fill="#FFD200"/>
<path d="M46.72 46.4558C46.3611 46.4558 46.0196 46.3247 45.7517 46.082C45.4652 45.8229 45.2969 45.4677 45.2777 45.0821C45.2379 44.2858 45.8534 43.6055 46.6495 43.5659C47.0378 43.5474 47.4055 43.6787 47.6918 43.9378C47.9782 44.1968 48.1465 44.552 48.1658 44.9375C48.2056 45.7338 47.5901 46.4141 46.7939 46.4537C46.7692 46.4551 46.7445 46.4558 46.72 46.4558ZM46.7233 43.7204C46.7014 43.7204 46.6795 43.7209 46.6575 43.722C45.9471 43.7576 45.3982 44.364 45.4337 45.0743C45.4508 45.4183 45.601 45.7351 45.8565 45.9662C46.112 46.1972 46.442 46.3137 46.786 46.2979C47.4963 46.2625 48.0453 45.6559 48.0098 44.9457C47.9926 44.6016 47.8424 44.285 47.587 44.0537C47.3479 43.8374 47.0435 43.7204 46.7233 43.7204Z" fill="black"/>
<path d="M58.0612 47.1224C58.099 47.8793 57.5193 48.52 56.7658 48.5577C56.7325 48.5594 56.699 48.561 56.6656 48.5594C56.6623 48.5595 56.6623 48.5596 56.6623 48.5596C56.4581 48.553 56.2649 48.5025 56.0902 48.4177C55.9909 48.3691 55.8976 48.307 55.8137 48.2342C55.5346 48.0008 55.35 47.6523 55.3303 47.2588C55.313 46.9121 55.4272 46.5888 55.6319 46.3378C55.8644 46.042 56.2224 45.847 56.6293 45.8267C57.3828 45.7892 58.0235 46.3689 58.0612 47.1224Z" fill="#FFD200"/>
<path d="M56.6946 48.6381C56.6837 48.6381 56.6726 48.638 56.6616 48.6374C56.4501 48.6311 56.2469 48.5808 56.056 48.4881C55.9505 48.4364 55.8519 48.3709 55.7625 48.2934C55.4587 48.0393 55.2723 47.6634 55.2523 47.2629C55.2345 46.9085 55.3478 46.5627 55.5712 46.2886C55.8242 45.9668 56.2088 45.7698 56.6252 45.7489C57.4233 45.7085 58.0996 46.3236 58.1393 47.1186C58.1586 47.5056 58.0269 47.8762 57.7683 48.1623C57.5098 48.4486 57.1551 48.6167 56.7695 48.6358C56.7448 48.637 56.7196 48.6381 56.6946 48.6381ZM56.698 45.9032C56.6765 45.9032 56.6551 45.9037 56.6332 45.9048C56.2619 45.9236 55.9194 46.099 55.6933 46.3862C55.4936 46.6313 55.3926 46.9396 55.4084 47.2551C55.4262 47.6123 55.5923 47.9475 55.8639 48.1745C55.9442 48.2442 56.0314 48.302 56.1246 48.3477C56.2954 48.4305 56.4771 48.4756 56.6648 48.4816C56.7007 48.4834 56.7313 48.4814 56.7618 48.4799C57.1056 48.4627 57.422 48.3128 57.6523 48.0576C57.8831 47.8023 58.0005 47.4716 57.9833 47.1266C57.9489 46.4391 57.3787 45.9032 56.698 45.9032Z" fill="black"/>
<path d="M37.0898 44.7155C37.0809 44.7175 37.0735 44.7169 37.0646 44.7189C34.326 44.9675 31.629 43.7801 29.7562 41.8051C29.0885 41.1017 28.4374 40.206 27.9805 39.2321C27.2635 37.7172 27.024 36.014 27.9512 34.5634C28.8143 33.222 30.0874 33.476 31.2923 34.2079C32.3549 34.855 33.3676 35.8768 33.9899 36.5057C34.5327 37.047 35.1059 37.546 35.7873 37.9018C36.884 38.482 38.1449 38.5715 39.2559 39.0917C39.4753 39.1941 39.7155 39.3246 39.9539 39.4886C40.6459 39.9505 41.337 40.6225 41.5292 41.3394C42.093 43.4863 38.6293 44.573 37.0898 44.7155Z" fill="black"/>
<path d="M36.3538 44.8281C33.9302 44.8281 31.4914 43.7488 29.6993 41.8588C28.9687 41.0894 28.3332 40.1684 27.9094 39.2652C27.3162 38.0119 26.8304 36.1713 27.8852 34.5214C28.6448 33.3406 29.8049 33.2133 31.3327 34.1412C32.4088 34.7965 33.4331 35.8321 34.0451 36.4509C34.4893 36.8937 35.0931 37.4513 35.8233 37.8326C36.3992 38.1373 37.0345 38.3087 37.6493 38.4743C38.1965 38.6218 38.7625 38.7745 39.2888 39.0209C39.5419 39.1391 39.7804 39.2747 39.9979 39.4242C40.3995 39.6924 41.3619 40.4151 41.6044 41.3192C41.7465 41.8604 41.6521 42.3723 41.3236 42.8416C40.4739 44.0552 38.2862 44.6817 37.1022 44.7925L37.0836 44.795C36.8411 44.817 36.5973 44.8281 36.3538 44.8281ZM37.0573 44.6412L37.0833 44.7165L37.0734 44.6392L37.0825 44.6376C38.3226 44.5229 40.4187 43.8619 41.1956 42.752C41.4964 42.3223 41.5832 41.8538 41.4533 41.3596C41.2247 40.507 40.2979 39.8127 39.9102 39.5538C39.699 39.4085 39.468 39.2772 39.2227 39.1627C38.7086 38.922 38.1493 38.7711 37.6085 38.6254C36.9856 38.4575 36.3417 38.2837 35.7507 37.971C35.0022 37.58 34.3867 37.0122 33.9344 36.5614C33.327 35.9473 32.3112 34.9201 31.2514 34.2748C29.7897 33.3869 28.7317 33.4949 28.0168 34.6057C27.0006 36.1954 27.4744 37.9809 28.051 39.1988C28.4677 40.0873 29.0934 40.9936 29.8127 41.7513C31.7524 43.7968 34.4596 44.8764 37.0573 44.6412Z" fill="black"/>
<path d="M37.0893 44.7155C37.0804 44.7175 37.0731 44.7169 37.0641 44.7189C34.3255 44.9675 31.6286 43.7801 29.7557 41.8051C29.088 41.1017 28.4369 40.206 27.98 39.2321C29.6587 38.5101 31.87 38.6715 33.81 39.8388C35.76 41.0086 36.9432 42.8867 37.0893 44.7155Z" fill="#FF2A2A"/>
<path d="M36.3536 44.8281C33.93 44.8281 31.4912 43.7488 29.6991 41.8588C28.9685 41.0894 28.333 40.1684 27.9092 39.2652L27.875 39.1922L27.9492 39.1603C29.7061 38.4048 31.9677 38.6392 33.8503 39.7718C35.7438 40.9077 37.0148 42.7995 37.1673 44.7092L37.1726 44.7761L37.0835 44.7952C36.841 44.817 36.5971 44.8281 36.3536 44.8281ZM28.0858 39.2724C28.5021 40.137 29.1129 41.0144 29.8125 41.7512C31.7391 43.7831 34.4233 44.8627 37.0048 44.6456C36.829 42.8113 35.5955 41.001 33.7698 39.9057C31.956 38.8144 29.7866 38.575 28.0858 39.2724Z" fill="black"/>
<path d="M37.5624 27.1527L37.1089 27.9936L40.8715 30.0228L41.325 29.1819L37.5624 27.1527Z" fill="black"/>
<path d="M40.901 30.1291L37.001 28.0259L37.5287 27.0472L41.4287 29.1505L40.901 30.1291ZM37.2127 27.9624L40.8374 29.9174L41.2168 29.2141L37.5921 27.2591L37.2127 27.9624Z" fill="black"/>
<path d="M55.3019 36.7203C52.6516 41.6344 47.4886 44.016 43.6489 42.1492C43.5706 42.1103 43.4925 42.0712 43.4156 42.0298C43.1657 41.8951 42.9296 41.7451 42.7037 41.5811L42.7015 41.5801C42.5891 41.4968 42.4825 41.4135 42.3764 41.3239C41.8333 40.8692 41.3689 40.3245 40.9938 39.7113C39.3164 36.9789 39.3306 32.8784 41.324 29.1822L55.3019 36.7203Z" fill="black"/>
<path d="M46.4941 42.8709C45.4979 42.8709 44.5228 42.6609 43.6145 42.2193C43.5279 42.1762 43.4524 42.1384 43.3781 42.0984C43.1334 41.9663 42.8907 41.8137 42.6574 41.6444C42.535 41.5541 42.4275 41.4694 42.3259 41.3836C41.7809 40.9275 41.3101 40.3784 40.9269 39.7521C39.1832 36.9117 39.312 32.7482 41.2551 29.1451L41.2921 29.0764L55.4075 36.6887L55.3704 36.7575C53.3137 40.5709 49.7909 42.8709 46.4941 42.8709ZM41.3557 29.288C39.4738 32.827 39.356 36.8945 41.0601 39.6702C41.4345 40.2821 41.8942 40.8184 42.4264 41.2638C42.5257 41.3475 42.6308 41.4302 42.7477 41.5171C42.9769 41.6829 43.2134 41.8319 43.4524 41.9607C43.5253 42.0001 43.5992 42.037 43.6734 42.074C45.5209 42.9727 47.7248 42.9116 49.8881 41.9068C52.0416 40.9066 53.9238 39.0777 55.1954 36.7518L41.3557 29.288Z" fill="black"/>
<path d="M49.9881 33.8547C47.5198 36.4279 44.9516 38.8795 42.3763 41.3238C41.8331 40.869 41.3687 40.3243 40.9937 39.7111C43.3354 37.3931 45.7611 35.1753 48.0703 32.8203L49.9881 33.8547Z" fill="white"/>
<path d="M42.3793 41.4286L42.3259 41.3839C41.7807 40.9275 41.3099 40.3785 40.9267 39.7521L40.8945 39.6993L40.9384 39.6558C41.9241 38.6803 42.9409 37.7066 43.9243 36.765C45.2777 35.4692 46.6772 34.1295 48.0142 32.7661L48.0554 32.724L50.1154 33.8347L50.0443 33.9088C47.6204 36.4357 45.1617 38.7878 42.43 41.3807L42.3793 41.4286ZM41.0927 39.723C41.4482 40.2928 41.8785 40.7955 42.3731 41.2191C45.0566 38.6718 47.4768 36.3554 49.8604 33.8747L48.0848 32.9172C46.7586 34.2679 45.373 35.5944 44.0326 36.8778C43.0642 37.8047 42.0634 38.7629 41.0927 39.723Z" fill="black"/>
<path d="M51.2504 34.5354C48.7613 37.1266 46.1675 39.5901 43.6488 42.1492C43.5706 42.1103 43.4924 42.0712 43.4155 42.0298C43.1657 41.8951 42.9296 41.7451 42.7036 41.5812C44.7374 39.6502 46.7718 37.713 48.7513 35.7141C49.2927 35.165 49.83 34.6137 50.362 34.0565L51.2504 34.5354Z" fill="white"/>
<path d="M43.6646 42.2445L43.6138 42.2192C43.528 42.1763 43.4525 42.1385 43.3782 42.0984C43.1335 41.9663 42.8908 41.8137 42.6575 41.6444L42.5815 41.5894L42.6497 41.5247C44.8236 39.4607 46.7791 37.5949 48.6958 35.6593C49.2871 35.0597 49.8135 34.5176 50.3056 34.0026L50.3467 33.9596L51.3782 34.5159L51.3069 34.5901C49.8715 36.0843 48.377 37.5602 46.9317 38.9875C45.8696 40.0363 44.7713 41.1206 43.7048 42.2045L43.6646 42.2445ZM42.8258 41.5727C43.0297 41.7162 43.24 41.8466 43.4524 41.9609C43.5119 41.9931 43.5723 42.0235 43.6327 42.054C44.6877 40.9828 45.7721 39.9119 46.8214 38.8758C48.2423 37.4727 49.7104 36.0229 51.1225 34.5554L50.3772 34.1534C49.8965 34.6562 49.3822 35.1853 48.8067 35.7688C46.9085 37.6857 44.9731 39.5338 42.8258 41.5727Z" fill="black"/>
<path d="M37.5605 27.1528C34.8562 32.1673 29.5355 34.5446 25.6742 32.4623C25.5547 32.3977 25.4398 32.3295 25.3265 32.2585C25.017 32.0657 24.7309 31.8499 24.466 31.61C24.3613 31.518 24.2615 31.422 24.1663 31.3222C23.6683 30.8143 23.2556 30.2198 22.9303 29.5655C21.5859 26.8543 21.7244 23.0601 23.5826 19.6145L37.5605 27.1528Z" fill="black"/>
<path d="M28.7167 33.2916C27.6413 33.2916 26.5944 33.0473 25.6373 32.5312C25.5277 32.472 25.4158 32.4065 25.2852 32.3249C24.9741 32.1312 24.6809 31.9101 24.4136 31.6682C24.3086 31.5757 24.206 31.4772 24.1098 31.3763C23.6171 30.8736 23.1963 30.2759 22.8606 29.6007C21.4568 26.769 21.7071 22.9286 23.5141 19.5777L23.5511 19.5089L37.6667 27.1212L37.6296 27.19C35.578 30.9936 32.0143 33.2916 28.7167 33.2916ZM23.6147 19.7205C21.8651 23.0111 21.6283 26.7634 23.0005 29.531C23.3289 30.1915 23.7399 30.7758 24.2221 31.2675C24.3161 31.366 24.415 31.4611 24.5176 31.5511C24.7789 31.7879 25.0647 32.0032 25.3679 32.1921C25.4955 32.272 25.6048 32.3359 25.7113 32.3934C29.5101 34.4421 34.7636 32.1054 37.4544 27.1842L23.6147 19.7205Z" fill="black"/>
<path d="M31.6601 23.9705C29.2302 26.5031 26.7035 28.9186 24.1667 31.3222C23.6687 30.8143 23.256 30.2198 22.9307 29.5655C25.1908 27.3425 27.5196 25.202 29.7423 22.9362L31.6601 23.9705Z" fill="white"/>
<path d="M24.1646 31.4318L24.1107 31.3767C23.6172 30.8733 23.1964 30.2756 22.8608 29.6004L22.8354 29.5496L22.8759 29.5099C23.7688 28.6318 24.6872 27.7522 25.5752 26.9017C26.9356 25.5989 28.3423 24.2518 29.6865 22.8815L29.7277 22.8397L31.7876 23.9505L31.7165 24.0246C29.2627 26.582 26.6678 29.0602 24.2204 31.3789L24.1646 31.4318ZM23.0259 29.5815C23.3378 30.197 23.7219 30.745 24.1687 31.2124C26.5748 28.9323 29.1205 26.5 31.5322 23.9905L29.7568 23.0328C28.4234 24.3904 27.0306 25.7243 25.6833 27.0147C24.809 27.8519 23.9052 28.7173 23.0259 29.5815Z" fill="black"/>
<path d="M32.9223 24.6512C30.4346 27.2399 27.8441 29.7019 25.3268 32.2586C25.0173 32.0657 24.7312 31.8499 24.4663 31.6101C26.4705 29.7085 28.471 27.7983 30.423 25.8298C30.9645 25.2806 31.5017 24.7294 32.0338 24.172L32.9223 24.6512Z" fill="white"/>
<path d="M25.3387 32.3579L25.2855 32.325C24.9744 32.131 24.6813 31.9099 24.4139 31.668L24.3516 31.6115L24.4128 31.5535C26.3356 29.7291 28.3792 27.7804 30.3677 25.7749C30.9538 25.1808 31.4804 24.6389 31.9776 24.1182L32.0187 24.0752L33.0502 24.6315L32.979 24.7057C31.5418 26.2012 30.0459 27.6786 28.5991 29.1075C27.5407 30.1527 26.4463 31.2338 25.3829 32.3139L25.3387 32.3579ZM24.5817 31.6082C24.8096 31.8085 25.0558 31.9935 25.3152 32.1588C26.3656 31.0931 27.4448 30.0271 28.4891 28.9958C29.9112 27.5914 31.3809 26.1399 32.7949 24.6711L32.0495 24.269C31.564 24.777 31.0496 25.3061 30.4789 25.8847C28.5097 27.8704 26.4875 29.8001 24.5817 31.6082Z" fill="black"/>
<path d="M35.5583 32.9726C35.0054 33.7132 35.2063 34.7982 36.0072 35.3963C36.808 35.9943 37.9055 35.8786 38.4585 35.1381C39.0113 34.3976 38.8104 33.3125 38.0095 32.7145C37.2087 32.1166 36.1113 32.2321 35.5583 32.9726Z" fill="#FFD200"/>
<path d="M37.1384 35.8561C36.7345 35.8561 36.3184 35.7261 35.9604 35.4588C35.5572 35.1578 35.2866 34.7293 35.1981 34.2521C35.1094 33.7727 35.215 33.3016 35.4956 32.9259C35.7761 32.5501 36.1977 32.3151 36.6828 32.264C37.164 32.2132 37.653 32.351 38.0562 32.652C38.8903 33.2747 39.0987 34.411 38.521 35.1848C38.1912 35.6264 37.6755 35.8561 37.1384 35.8561ZM36.8795 32.4099C36.8193 32.4099 36.7592 32.4131 36.6992 32.4195C36.258 32.4659 35.8752 32.6789 35.621 33.0194C35.3667 33.36 35.2712 33.7877 35.3519 34.2237C35.4331 34.6621 35.6824 35.0562 36.0538 35.3338C36.8189 35.9047 37.8696 35.7961 38.3959 35.0915C38.922 34.3866 38.7278 33.3486 37.9629 32.7771C37.6416 32.5374 37.2627 32.4099 36.8795 32.4099Z" fill="black"/>
<path d="M37.2415 32.9656C37.6331 33.5778 36.6823 34.1875 36.2899 33.5742C35.8985 32.9618 36.8493 32.3523 37.2415 32.9656Z" fill="white"/>
<path d="M34.5943 0.00119488L33.0127 0.449646L35.3163 8.57388L36.8979 8.12543L34.5943 0.00119488Z" fill="#009CF7"/>
<path d="M15.2642 12.1428L14.3081 13.4791L20.6291 18.0017L21.5852 16.6653L15.2642 12.1428Z" fill="#009CF7"/>
<path d="M24.0613 3.95221L22.6387 4.77515L27.1783 12.6231L28.6009 11.8002L24.0613 3.95221Z" fill="#009CF7"/>
</g>
<defs>
<clipPath id="clip0_4670_3744">
<rect width="80" height="80" fill="white"/>
</clipPath>
</defs>
</svg>
