<svg width="80" height="80" viewBox="0 0 80 80" fill="none" xmlns="http://www.w3.org/2000/svg">
<g clip-path="url(#clip0_4670_3632)">
<path d="M66.3088 78.7131H12.3999C12.3999 78.7131 18.1197 68.8449 26.7438 70.0805C35.3677 71.3161 34.5055 75.0447 41.264 73.828C46.0904 72.9591 44.9352 71.3942 50.608 69.3725C58.5827 66.5305 66.3088 78.7131 66.3088 78.7131Z" fill="#F4F1E3"/>
<path d="M72.7864 18.9508C72.7358 18.9508 72.686 18.9273 72.6536 18.8834C72.6002 18.8103 72.6161 18.7073 72.6894 18.6541C72.7971 18.5669 73.4875 17.8516 73.8107 17.4719C73.4303 17.5245 72.7271 17.6581 72.0872 17.7948C71.9978 17.8112 71.9111 17.757 71.8924 17.6684C71.8733 17.5795 71.9299 17.4923 72.0186 17.4734C74.2083 17.0058 74.2355 17.0934 74.2844 17.2522C74.3683 17.5222 72.8989 18.9078 72.8831 18.9191C72.8539 18.9406 72.8199 18.9508 72.7864 18.9508Z" fill="#241726"/>
<path d="M70.2534 18.993C70.2534 18.993 70.4124 16.4336 71.7478 16.8989C73.5974 17.5434 74.4481 22.3119 70.956 23.3469C67.4642 24.3819 66.2056 21.5098 66.2056 21.5098L68.0813 21.0795C68.0813 21.0795 66.7387 19.8659 66.8657 18.8722C66.9928 17.8784 68.0418 18.7542 68.0418 18.7542C68.0418 18.7542 66.8165 16.4625 67.8351 16.3951C68.8535 16.328 70.2534 18.993 70.2534 18.993Z" fill="#B1739A"/>
<path d="M71.8287 18.6933C71.4717 18.6933 71.1248 18.1705 71.0251 18.0072C70.9777 17.9295 71.0023 17.8286 71.0798 17.7814C71.1568 17.7339 71.2581 17.7583 71.3054 17.8359C71.4427 18.0605 71.6581 18.3042 71.7837 18.3552C71.7852 18.2186 71.6918 17.8817 71.5646 17.5819C71.5293 17.4984 71.5684 17.402 71.6517 17.3667C71.7352 17.3314 71.8315 17.37 71.867 17.4536C72.0007 17.7689 72.2035 18.333 72.059 18.5684C72.0137 18.6425 71.9406 18.6864 71.8531 18.6925C71.8449 18.6933 71.8368 18.6933 71.8287 18.6933Z" fill="#241726"/>
<path d="M68.6746 21.0711C68.6377 21.0711 68.6005 21.0586 68.5699 21.0333C68.4696 20.9498 67.5933 20.2026 67.6566 19.5887C67.6777 19.3858 67.7952 19.3103 67.8633 19.2834C68.0642 19.2042 68.3541 19.3434 68.5981 19.5067C68.4861 18.8778 68.5444 18.5223 68.7731 18.4483C68.8705 18.4162 69.1667 18.3212 70.2533 20.0134C70.3022 20.0898 70.28 20.1914 70.2038 20.2404C70.1272 20.2895 70.0258 20.267 69.9769 20.1911C69.5828 19.5772 69.0647 18.895 68.8685 18.7789C68.8419 18.9004 68.8949 19.3953 69.013 19.8703C69.0302 19.9395 69.0005 20.0123 68.9394 20.0497C68.8783 20.0872 68.8003 20.0811 68.746 20.0339C68.4524 19.7789 68.0892 19.5618 67.9886 19.5878C67.9892 19.5908 67.9858 19.6022 67.9836 19.6228C67.9491 19.9547 68.4538 20.5092 68.78 20.7806C68.8496 20.8386 68.8592 20.9423 68.8011 21.0118C68.7685 21.0509 68.7217 21.0711 68.6746 21.0711Z" fill="#241726"/>
<path d="M70.2106 22.7547C69.7094 22.7547 69.3402 22.6565 69.3106 22.6486C69.2233 22.6245 69.1719 22.5344 69.1958 22.4469C69.2197 22.3597 69.3099 22.3089 69.3974 22.3317C69.4102 22.3356 70.6864 22.6717 71.6656 22.0347C72.255 21.6511 72.6253 20.9895 72.7664 20.0683C72.7799 19.9784 72.8617 19.9165 72.9536 19.9306C73.0433 19.9444 73.1049 20.0281 73.0911 20.1176C72.9352 21.1369 72.5152 21.8748 71.8425 22.3114C71.3003 22.6633 70.6941 22.7547 70.2106 22.7547Z" fill="#241726"/>
<path d="M1.49952 40.4583C1.46671 40.4583 1.43342 40.4483 1.40467 40.4272C1.38889 40.4156 -0.0800132 39.0289 0.00342427 38.7597C0.0546743 38.5967 0.0799868 38.5147 2.26936 38.9812C2.35811 39.0002 2.41452 39.0873 2.39561 39.1762C2.37671 39.2648 2.28936 39.32 2.20077 39.3027C1.56092 39.1661 0.857956 39.0323 0.477331 38.9797C0.800612 39.3594 1.49139 40.0753 1.60108 40.1637C1.6703 40.2198 1.68421 40.3225 1.62983 40.3934C1.59733 40.4358 1.54874 40.4583 1.49952 40.4583Z" fill="#241726"/>
<path d="M4.03434 40.5008C4.03434 40.5008 3.87528 37.9414 2.53996 38.4067C0.690276 39.0512 -0.160349 43.8197 3.33168 44.8547C6.82356 45.8897 8.08215 43.0176 8.08215 43.0176L6.20653 42.5873C6.20653 42.5873 7.54918 41.3737 7.42215 40.38C7.29512 39.3864 6.24606 40.262 6.24606 40.262C6.24606 40.262 7.47137 37.9703 6.45278 37.903C5.43418 37.8358 4.03434 40.5008 4.03434 40.5008Z" fill="#B1739A"/>
<path d="M2.45881 40.2014C2.45084 40.2014 2.44256 40.2014 2.43459 40.2008C2.34709 40.1947 2.27397 40.1508 2.2285 40.0767C2.08397 39.8412 2.28694 39.2772 2.42053 38.9616C2.45615 38.8778 2.55256 38.8391 2.63584 38.8747C2.71928 38.91 2.75818 39.0062 2.72287 39.0898C2.59568 39.39 2.50225 39.7269 2.50381 39.8634C2.62975 39.8125 2.84506 39.5687 2.98209 39.3439C3.02959 39.2662 3.13084 39.2422 3.20772 39.2894C3.28522 39.3366 3.30975 39.4375 3.2624 39.5152C3.16303 39.6783 2.81569 40.2014 2.45881 40.2014Z" fill="#241726"/>
<path d="M5.61351 42.5789C5.56632 42.5789 5.51961 42.5587 5.48711 42.5195C5.42914 42.45 5.43867 42.3462 5.50835 42.2883C5.8346 42.0169 6.33898 41.4625 6.30461 41.1305C6.30148 41.1 6.29492 41.0897 6.29492 41.0897C6.20945 41.065 5.84023 41.2831 5.5421 41.5415C5.48773 41.5884 5.40929 41.5948 5.34867 41.5573C5.28757 41.5201 5.25789 41.4473 5.27507 41.3776C5.38679 40.928 5.44039 40.4608 5.40382 40.2969C5.19695 40.4376 4.69523 41.1009 4.31117 41.699C4.26195 41.775 4.16039 41.7975 4.08429 41.7484C4.00804 41.6994 3.98586 41.5976 4.03476 41.5214C5.12179 39.828 5.4171 39.9239 5.51492 39.9562C5.74367 40.0303 5.8021 40.3856 5.68992 41.0144C5.93429 40.8514 6.22461 40.7115 6.42492 40.7911C6.49289 40.818 6.61023 40.8934 6.63148 41.0964C6.69476 41.7103 5.81867 42.4575 5.71836 42.5409C5.68773 42.5664 5.65039 42.5789 5.61351 42.5789Z" fill="#241726"/>
<path d="M4.07706 44.2623C3.59378 44.2623 2.98753 44.1709 2.44549 43.8191C1.77284 43.3825 1.35268 42.6445 1.19674 41.6253C1.18299 41.5358 1.24456 41.4522 1.33424 41.4383C1.42471 41.4242 1.50768 41.4861 1.52143 41.5759C1.66253 42.4973 2.03284 43.1591 2.62237 43.5423C3.60128 44.1792 4.87799 43.8428 4.89065 43.8394C4.97831 43.8162 5.06846 43.8673 5.09221 43.9545C5.11612 44.042 5.06487 44.1322 4.97737 44.1562C4.94784 44.1642 4.57846 44.2623 4.07706 44.2623Z" fill="#241726"/>
<path d="M9.50835 17.7529C9.50835 17.7529 10.5185 14.7564 10.9518 15.0659C11.3852 15.3753 11.2763 15.8956 11.2763 15.8956C11.2763 15.8956 12.5365 14.2674 13.2196 14.6656C13.9026 15.0637 13.2354 15.8718 13.2354 15.8718C13.2354 15.8718 15.3502 14.3714 15.6838 15.1574C16.0174 15.9435 14.1105 17.5495 14.1105 17.5495C14.1105 17.5495 15.211 16.8684 15.4394 17.791C15.6679 18.7137 13.8204 18.9364 13.7055 18.9357C13.5907 18.9353 14.3091 18.9032 14.0937 19.5143C13.8782 20.1253 8.06491 20.4401 9.50835 17.7529Z" fill="#51AEA5"/>
<path d="M6.84053 21.0489C6.84053 21.0489 4.00944 22.4576 3.921 21.9324C3.83256 21.4073 4.27694 21.1157 4.27694 21.1157C4.27694 21.1157 2.23491 21.3789 2.03225 20.6146C1.82959 19.8504 2.87272 19.7493 2.87272 19.7493C2.87272 19.7493 0.315687 19.3187 0.634437 18.5264C0.953187 17.7342 3.43756 17.9434 3.43756 17.9434C3.43756 17.9434 2.17741 17.6487 2.66709 16.834C3.15678 16.0193 4.62225 17.1662 4.70319 17.2476C4.78412 17.329 4.25272 16.8443 4.83678 16.5639C5.421 16.2834 9.7599 20.1653 6.84053 21.0489Z" fill="#51AEA5"/>
<path d="M10.2281 20.5759C10.2281 20.5759 12.8648 22.3213 12.4545 22.6609C12.0442 23.0003 11.5694 22.7615 11.5694 22.7615C11.5694 22.7615 12.8194 24.3974 12.2594 24.9554C11.6992 25.5134 11.0895 24.661 11.0895 24.661C11.0895 24.661 11.9967 27.0901 11.1514 27.2109C10.3061 27.3315 9.24342 25.0762 9.24342 25.0762C9.24342 25.0762 9.6192 26.3146 8.66873 26.2985C7.71826 26.2824 7.97748 24.4398 8.00748 24.3288C8.03748 24.2181 7.88389 24.9206 7.34858 24.5554C6.81326 24.1903 8.00155 18.491 10.2281 20.5759Z" fill="#51AEA5"/>
<path d="M10.9415 18.7079C10.6347 18.6437 10.3302 18.659 10.0477 18.7376C10.1722 17.7667 9.53224 16.8478 8.55771 16.6439C7.53349 16.4295 6.52927 17.0862 6.31505 18.1104C6.1863 18.726 6.37365 19.3332 6.7649 19.7671C6.0824 19.9378 5.52146 20.4812 5.36771 21.2161C5.15333 22.2403 5.81005 23.2445 6.83427 23.4587C7.85865 23.6731 8.86271 23.0164 9.07693 21.9921C9.09146 21.9229 9.10115 21.8539 9.10787 21.7851C9.37115 22.0968 9.73505 22.3271 10.1652 22.4173C11.1896 22.6317 12.1936 21.975 12.4079 20.9507C12.6224 19.9264 11.9658 18.9223 10.9415 18.7079ZM8.67552 20.3234C8.67302 20.3428 8.66974 20.3621 8.66802 20.3815C8.65474 20.3659 8.64099 20.3506 8.6274 20.3354C8.64333 20.3314 8.65958 20.3279 8.67552 20.3234Z" fill="#D45A41"/>
<path d="M6.24225 19.8184C6.21037 19.8184 6.17803 19.8092 6.14975 19.7898C5.01178 19.0124 2.87787 19.1082 2.85631 19.1079C2.76303 19.1179 2.6885 19.0424 2.68428 18.9521C2.6799 18.8617 2.74975 18.7846 2.84037 18.7803C2.93209 18.7754 5.10537 18.6789 6.33521 19.5185C6.41006 19.5698 6.42928 19.6718 6.37818 19.747C6.34615 19.7934 6.29459 19.8184 6.24225 19.8184Z" fill="#241726"/>
<path d="M10.9413 18.8721C10.8643 18.8721 10.7956 18.8176 10.7804 18.7393C10.7631 18.6501 10.8212 18.5638 10.9101 18.5465C11.609 18.4106 12.8192 16.8804 13.2267 16.3021C13.2788 16.2284 13.3809 16.2101 13.4556 16.2623C13.5296 16.3145 13.5474 16.4171 13.4952 16.4912C13.3376 16.7151 11.9276 18.6831 10.9731 18.869C10.9623 18.8712 10.9518 18.8721 10.9413 18.8721Z" fill="#241726"/>
<path d="M10.0032 25.285C9.91365 25.285 9.84037 25.2131 9.83896 25.1232C9.82943 24.5514 9.69146 23.0004 9.17349 22.6943C9.09537 22.6481 9.06959 22.5475 9.11552 22.4695C9.16177 22.3912 9.26224 22.3659 9.34052 22.4114C10.1086 22.8653 10.1636 24.8887 10.1674 25.1179C10.1688 25.2084 10.0965 25.2831 10.0058 25.2846C10.0049 25.285 10.004 25.285 10.0032 25.285Z" fill="#241726"/>
<path d="M10.0811 18.7326C9.99606 18.7012 9.90185 18.7445 9.86997 18.8298C9.86622 18.8398 9.48075 19.8548 8.66716 20.0132C8.63888 20.0189 8.61544 20.0329 8.59497 20.0503C8.55388 20.0217 8.51372 19.9925 8.46778 19.9665C7.82685 19.604 7.28388 19.4835 6.85372 19.6106C6.48122 19.7203 6.33903 19.974 6.32388 20.0025C6.28216 20.082 6.31263 20.1792 6.39153 20.2218C6.47013 20.2651 6.5695 20.2353 6.61372 20.157C6.61763 20.1503 6.70935 19.9915 6.95731 19.9221C7.19169 19.8579 7.61544 19.8612 8.30606 20.2525C9.1795 20.7464 8.92794 21.9064 8.91685 21.9554C8.89685 22.0436 8.952 22.1318 9.04028 22.152C9.05263 22.1545 9.06497 22.1562 9.077 22.1562C9.15185 22.1562 9.21935 22.105 9.23685 22.0289C9.24825 21.9792 9.4656 20.9782 8.87325 20.2982C9.76747 20.0282 10.1612 18.9895 10.1783 18.9431C10.2095 18.8582 10.1661 18.764 10.0811 18.7326Z" fill="#241726"/>
<path d="M9.40574 18.256C9.33668 18.256 9.27231 18.2121 9.24965 18.1427C9.03137 17.477 8.26403 17.5331 8.25684 17.5327C8.16481 17.5413 8.08715 17.4731 8.07965 17.3826C8.07231 17.2921 8.13949 17.2129 8.22996 17.2056C8.58637 17.1729 9.32324 17.3131 9.56184 18.0407C9.59012 18.1267 9.54309 18.2193 9.45699 18.2479C9.43996 18.2534 9.42262 18.256 9.40574 18.256Z" fill="#FBFCFF"/>
<path d="M11.8853 20.682C11.8134 20.682 11.7473 20.6342 11.7272 20.5617C11.5907 20.069 10.8734 19.7676 10.8662 19.7643C10.7825 19.7299 10.7426 19.6338 10.777 19.5501C10.8115 19.4663 10.9073 19.4267 10.9911 19.4606C11.0265 19.4752 11.864 19.8256 12.0437 20.4737C12.0679 20.5612 12.0167 20.6517 11.9292 20.6757C11.9147 20.6799 11.8998 20.682 11.8853 20.682Z" fill="#FBFCFF"/>
<path d="M8.42562 21.6438C8.33578 21.6438 8.2625 21.5717 8.2614 21.4815C8.26015 21.3724 8.22094 21.2831 8.14203 21.2082C7.89062 20.9703 7.30891 20.9379 7.10484 20.9487C7.01781 20.952 6.93781 20.8823 6.93375 20.7915C6.92984 20.701 7.00015 20.6245 7.09062 20.6203C7.12656 20.6203 7.96281 20.5867 8.3675 20.9692C8.51266 21.1065 8.58734 21.2774 8.59 21.4774C8.59109 21.5679 8.51844 21.6423 8.42781 21.6435C8.42703 21.6438 8.42625 21.6438 8.42562 21.6438Z" fill="#FBFCFF"/>
<path d="M70.4014 56.2252C70.4014 56.2252 67.6464 54.673 68.0312 54.305C68.4161 53.9371 68.9069 54.1413 68.9069 54.1413C68.9069 54.1413 67.5428 52.5991 68.0615 52.0024C68.5801 51.4058 69.2495 52.2122 69.2495 52.2122C69.2495 52.2122 68.1706 49.8544 69.0051 49.6735C69.8397 49.4925 71.0611 51.666 71.0611 51.666C71.0611 51.666 70.5976 50.4577 71.5467 50.4057C72.4958 50.3536 72.3694 52.2102 72.3473 52.3229C72.3253 52.4355 72.4283 51.7238 72.9883 52.0496C73.5484 52.3755 72.7715 58.1452 70.4014 56.2252Z" fill="#51AEA5"/>
<path d="M73.1407 59.4621C73.1407 59.4621 73.9957 62.5065 73.4633 62.4952C72.931 62.484 72.7276 61.9929 72.7276 61.9929C72.7276 61.9929 72.6046 64.048 71.816 64.1044C71.0274 64.1607 71.1229 63.1171 71.1229 63.1171C71.1229 63.1171 70.2221 65.5486 69.5033 65.0874C68.7846 64.6263 69.4543 62.2247 69.4543 62.2247C69.4543 62.2247 68.9294 63.4077 68.2205 62.7744C67.5116 62.1411 68.9121 60.9157 69.0073 60.8515C69.1024 60.7871 68.5269 61.2186 68.3605 60.5924C68.194 59.9661 72.818 56.4288 73.1407 59.4621Z" fill="#51AEA5"/>
<path d="M73.3089 56.046C73.3089 56.046 75.5162 53.7818 75.7731 54.2482C76.03 54.7146 75.7065 55.1366 75.7065 55.1366C75.7065 55.1366 77.5473 54.2143 77.9907 54.8686C78.4342 55.5232 77.4829 55.963 77.4829 55.963C77.4829 55.963 80.0387 55.5255 79.9993 56.3786C79.96 57.2318 77.5457 57.8541 77.5457 57.8541C77.5457 57.8541 78.8324 57.7163 78.6392 58.6469C78.4457 59.5775 76.684 58.9788 76.5807 58.9286C76.4775 58.8785 77.139 59.1607 76.6803 59.6182C76.2217 60.0758 70.8446 57.8438 73.3089 56.046Z" fill="#51AEA5"/>
<path d="M74.4852 57.4411C74.4198 57.414 74.3539 57.3915 74.2875 57.3721C74.6428 57.1718 74.9372 56.8572 75.1061 56.4513C75.508 55.485 75.0505 54.376 74.0844 53.9741C73.1181 53.5722 72.0091 54.0297 71.6072 54.9958C71.4869 55.2852 71.445 55.5872 71.4694 55.8794C70.5388 55.5757 69.5164 56.0327 69.1341 56.9521C68.7322 57.9183 69.1897 59.0274 70.1558 59.4293C70.7366 59.6708 71.368 59.6 71.8673 59.2968C71.9075 59.9991 72.3366 60.6518 73.0297 60.94C73.9959 61.3419 75.105 60.8844 75.5069 59.9182C75.9089 58.9521 75.4514 57.843 74.4852 57.4411ZM72.7708 57.524C72.7894 57.53 72.8078 57.5368 72.8264 57.5422C72.8086 57.5522 72.7909 57.5629 72.7734 57.5736C72.7727 57.5571 72.7722 57.5404 72.7708 57.524Z" fill="#D45A41"/>
<path d="M70.1639 63.0994C70.1564 63.0994 70.1486 63.0988 70.1409 63.0979C70.0511 63.0854 69.9886 63.0022 70.0011 62.9126C70.0138 62.8215 70.3244 60.6685 71.3795 59.6171C71.4439 59.5532 71.5478 59.5532 71.6117 59.6177C71.6759 59.6818 71.6756 59.7858 71.6114 59.8499C70.6349 60.8227 70.3294 62.9369 70.3263 62.958C70.3149 63.0401 70.2445 63.0994 70.1639 63.0994Z" fill="#241726"/>
<path d="M71.6071 55.1602C71.5166 55.1602 71.4432 55.0871 71.4429 54.9966C71.4398 54.2843 70.1627 52.8096 69.6707 52.3016C69.6077 52.2365 69.6093 52.1326 69.6746 52.0694C69.7401 52.0066 69.844 52.0079 69.9068 52.0733C70.0971 52.2699 71.7671 54.0227 71.7713 54.9955C71.7716 55.0863 71.6985 55.1601 71.6077 55.1604L71.6071 55.1602Z" fill="#241726"/>
<path d="M75.0699 57.533C75.0314 57.533 74.9926 57.5196 74.9615 57.4919C74.8934 57.4322 74.8868 57.3283 74.9467 57.2604C75.5362 56.5907 77.5346 56.9149 77.7603 56.9541C77.8496 56.9694 77.9093 57.0544 77.894 57.1436C77.8785 57.2332 77.7942 57.2957 77.7042 57.2774C77.1409 57.1802 75.5906 57.0257 75.1934 57.4772C75.1607 57.5141 75.1156 57.533 75.0699 57.533Z" fill="#241726"/>
<path d="M74.5514 57.2908C74.5047 57.2702 73.5617 56.8696 72.7833 57.3247C72.6855 56.396 71.7383 55.8152 71.696 55.7896C71.618 55.7433 71.5175 55.7674 71.4708 55.8457C71.4241 55.9233 71.4491 56.0243 71.5267 56.0711C71.5361 56.0766 72.4613 56.6449 72.4649 57.4736C72.465 57.5026 72.4746 57.5282 72.4877 57.5518C72.4519 57.5869 72.4156 57.6208 72.3814 57.6613C71.9052 58.2235 71.6861 58.7344 71.73 59.1802C71.7681 59.5666 71.991 59.7536 72.0161 59.7738C72.0461 59.7976 72.0817 59.8091 72.117 59.8091C72.1647 59.8091 72.2119 59.7882 72.2444 59.7485C72.3013 59.679 72.291 59.576 72.2222 59.5182C72.2163 59.513 72.0774 59.3932 72.056 59.1365C72.0356 58.8946 72.1191 58.479 72.6319 57.8735C73.2805 57.1072 74.3735 57.5713 74.4194 57.5916C74.5035 57.6282 74.5995 57.5897 74.6355 57.5069C74.672 57.424 74.6344 57.3274 74.5514 57.2908Z" fill="#241726"/>
<path d="M69.7884 57.5605C69.7826 57.5605 69.7767 57.5602 69.7709 57.5596C69.6806 57.5499 69.6154 57.4691 69.6249 57.379C69.6628 57.0233 69.9349 56.3251 70.6939 56.2266C70.7835 56.2138 70.8662 56.2783 70.8778 56.3683C70.8895 56.4585 70.826 56.5405 70.7362 56.5524C70.0415 56.6426 69.9521 57.4058 69.9514 57.4135C69.9425 57.498 69.8712 57.5605 69.7884 57.5605Z" fill="#FBFCFF"/>
<path d="M72.4937 55.3415C72.4629 55.3415 72.4318 55.3329 72.404 55.3146C72.3282 55.2652 72.3068 55.1635 72.3562 55.0879C72.3771 55.0555 72.8777 54.2982 73.5482 54.243C73.6396 54.236 73.7179 54.3027 73.7254 54.3932C73.7327 54.4836 73.6655 54.5629 73.5751 54.5702C73.0655 54.6122 72.6355 55.2607 72.6312 55.2671C72.5999 55.3152 72.5473 55.3415 72.4937 55.3415Z" fill="#FBFCFF"/>
<path d="M72.9295 59.3239C72.9217 59.3239 72.9136 59.3233 72.9056 59.3221C72.8159 59.3093 72.7538 59.2258 72.7669 59.136C72.7719 59.101 72.8969 58.2725 73.3481 57.9468C73.5099 57.8304 73.6917 57.7883 73.8886 57.8236C73.978 57.8394 74.0374 57.9247 74.0216 58.0138C74.0056 58.1033 73.9219 58.1613 73.8313 58.1469C73.7231 58.1277 73.6286 58.1494 73.5408 58.213C73.2597 58.4154 73.1214 58.9821 73.0917 59.1835C73.0799 59.2652 73.0097 59.3239 72.9295 59.3239Z" fill="#FBFCFF"/>
<path d="M26.8509 72.1555C26.8056 72.1555 26.7604 72.1369 26.7281 72.1003C26.7078 72.0775 26.2315 71.5622 25.4845 71.9162C25.4028 71.9544 25.3048 71.9202 25.2659 71.838C25.227 71.7563 25.2619 71.6581 25.344 71.6192C26.1251 71.2497 26.7519 71.6298 26.9744 71.8828C27.0344 71.9511 27.0276 72.0547 26.9595 72.1147C26.9279 72.142 26.8894 72.1555 26.8509 72.1555Z" fill="#241726"/>
<path d="M25.5555 73.1228C25.5102 73.1228 25.465 73.1042 25.4327 73.0677C25.4124 73.0445 24.9363 72.5289 24.1891 72.8836C24.1075 72.9217 24.0091 72.8875 23.9705 72.8053C23.9316 72.7236 23.9664 72.6255 24.0486 72.5866C24.8296 72.217 25.4564 72.5972 25.6788 72.8502C25.7388 72.9184 25.7321 73.022 25.6639 73.082C25.6327 73.1094 25.5939 73.1228 25.5555 73.1228Z" fill="#241726"/>
<path d="M23.3783 72.9375C23.333 72.9375 23.2878 72.9189 23.2555 72.8824C23.2353 72.8595 22.7603 72.3431 22.0119 72.698C21.9302 72.7364 21.8322 72.7016 21.7931 72.6197C21.7544 72.538 21.7894 72.4399 21.8714 72.401C22.6522 72.0308 23.2794 72.4119 23.5017 72.6649C23.5617 72.7331 23.555 72.8367 23.4869 72.8967C23.4555 72.9241 23.4167 72.9375 23.3783 72.9375Z" fill="#241726"/>
<path d="M21.1854 72.0545C21.1373 72.0545 21.0896 72.0338 21.0573 71.9933C21.0005 71.9227 21.0115 71.8191 21.0823 71.7624C21.7649 71.2133 22.4518 71.4413 22.7193 71.6389C22.7924 71.6928 22.808 71.7955 22.7541 71.8686C22.7007 71.9411 22.5983 71.9572 22.5251 71.9039C22.5001 71.8856 21.9387 71.4947 21.2882 72.0185C21.2579 72.0427 21.2215 72.0545 21.1854 72.0545Z" fill="#241726"/>
<path d="M23.557 71.8742C23.5064 71.8742 23.4564 71.8508 23.4242 71.8069C23.3707 71.7338 23.3867 71.6308 23.46 71.5775C24.165 71.0617 24.8423 71.3216 25.1021 71.5309C25.1728 71.588 25.1837 71.6913 25.1268 71.7619C25.0704 71.8324 24.9671 71.8433 24.8967 71.7872C24.8732 71.7689 24.3265 71.3509 23.6535 71.8424C23.6245 71.8641 23.5906 71.8742 23.557 71.8742Z" fill="#241726"/>
<path d="M20.6981 73.8066C20.6475 73.8066 20.5976 73.7831 20.5653 73.7392C20.5118 73.6661 20.5278 73.5631 20.6011 73.5098C21.3062 72.9941 21.9834 73.2539 22.2433 73.4633C22.3139 73.5203 22.3248 73.6236 22.2679 73.6942C22.2115 73.7648 22.1086 73.7756 22.0378 73.7195C22.0147 73.7019 21.4676 73.283 20.7947 73.7747C20.7656 73.7964 20.7317 73.8066 20.6981 73.8066Z" fill="#241726"/>
<path d="M19.3049 73.0503C19.2629 73.0503 19.2207 73.0342 19.1886 73.0022C19.1246 72.938 19.1246 72.8338 19.1889 72.77C19.8127 72.1469 20.5168 72.2995 20.8011 72.4669C20.8794 72.5127 20.9054 72.6134 20.8593 72.6917C20.8136 72.7694 20.7132 72.7959 20.635 72.7502C20.6074 72.7341 20.0157 72.4092 19.4208 73.0022C19.3889 73.0344 19.3469 73.0503 19.3049 73.0503Z" fill="#241726"/>
<path d="M57.4032 71.5559C57.3578 71.5559 57.3127 71.5373 57.2803 71.5007C57.2602 71.4779 56.7843 70.962 56.0368 71.3166C55.9547 71.3548 55.8569 71.3205 55.8182 71.2384C55.7793 71.1566 55.8141 71.0584 55.8963 71.0196C56.6769 70.6498 57.3043 71.0302 57.5266 71.2832C57.5866 71.3515 57.5799 71.4551 57.5118 71.5151C57.4803 71.5424 57.4418 71.5559 57.4032 71.5559Z" fill="#241726"/>
<path d="M56.1078 72.5232C56.0624 72.5232 56.0173 72.5046 55.9849 72.4681C55.9646 72.4452 55.4884 71.9293 54.7413 72.284C54.6596 72.3221 54.5617 72.2879 54.5228 72.2057C54.4838 72.124 54.5187 72.0257 54.6009 71.987C55.3815 71.6174 56.0087 71.9976 56.2312 72.2506C56.2912 72.3188 56.2845 72.4224 56.2162 72.4824C56.1848 72.5096 56.1462 72.5232 56.1078 72.5232Z" fill="#241726"/>
<path d="M53.9304 72.3377C53.885 72.3377 53.8399 72.3191 53.8075 72.2826C53.7872 72.2598 53.3116 71.7438 52.5643 72.0985C52.4821 72.1366 52.3846 72.1024 52.3455 72.0202C52.3066 71.9385 52.3414 71.8402 52.4235 71.8015C53.2044 71.432 53.8313 71.8121 54.0538 72.0651C54.1138 72.1334 54.1071 72.237 54.0388 72.297C54.0075 72.3243 53.9689 72.3377 53.9304 72.3377Z" fill="#241726"/>
<path d="M51.7371 71.4548C51.689 71.4548 51.6413 71.434 51.609 71.3935C51.5522 71.3229 51.5633 71.2193 51.634 71.1626C52.3162 70.6138 53.0037 70.8415 53.2712 71.0391C53.3443 71.093 53.3597 71.1957 53.306 71.2688C53.2527 71.3416 53.1499 71.3573 53.0771 71.3041C53.0518 71.2862 52.4907 70.8946 51.8399 71.4187C51.8096 71.4429 51.7732 71.4548 51.7371 71.4548Z" fill="#241726"/>
<path d="M54.1092 71.2746C54.0586 71.2746 54.0088 71.2512 53.9764 71.2073C53.923 71.1341 53.9389 71.0312 54.0122 70.9779C54.7174 70.4621 55.3944 70.722 55.6544 70.9313C55.725 70.9884 55.7359 71.0916 55.6791 71.1623C55.6225 71.2329 55.5195 71.2437 55.4489 71.1876C55.4259 71.1699 54.8791 70.751 54.2058 71.2427C54.1767 71.2643 54.1427 71.2746 54.1092 71.2746Z" fill="#241726"/>
<path d="M51.2508 73.207C51.2002 73.207 51.1504 73.1835 51.118 73.1396C51.0646 73.0665 51.0805 72.9635 51.1538 72.9102C51.8588 72.3945 52.5365 72.6543 52.7958 72.8637C52.8666 72.9207 52.8776 73.024 52.8207 73.0946C52.7641 73.1649 52.6611 73.1763 52.5905 73.1199C52.5674 73.1016 52.021 72.6834 51.3474 73.1751C51.3183 73.1966 51.2843 73.207 51.2508 73.207Z" fill="#241726"/>
<path d="M49.8571 72.4507C49.8151 72.4507 49.7729 72.4346 49.7409 72.4026C49.6768 72.3385 49.6768 72.2342 49.7412 72.1704C50.3653 71.5467 51.0688 71.6999 51.3534 71.8673C51.4315 71.9131 51.4574 72.0138 51.4115 72.0921C51.3656 72.1698 51.2649 72.1957 51.1876 72.1509C51.1624 72.1365 50.5698 71.8078 49.9731 72.4026C49.941 72.4346 49.8992 72.4507 49.8571 72.4507Z" fill="#241726"/>
<path d="M5.6701 67.4596C5.54119 67.4596 5.41182 67.4499 5.2851 67.431C5.19541 67.4179 5.13354 67.3341 5.14682 67.2446C5.16025 67.1547 5.24385 67.0935 5.33354 67.1063C5.53447 67.1358 5.74197 67.138 5.9451 67.1149C6.03541 67.1055 6.11666 67.1691 6.12697 67.2593C6.13744 67.3494 6.07275 67.4308 5.9826 67.4415C5.87885 67.4535 5.77463 67.4596 5.6701 67.4596ZM6.60182 67.2927C6.53416 67.2927 6.47057 67.2507 6.44697 67.183C6.41682 67.0974 6.46166 67.0038 6.54729 66.9736C6.73588 66.9072 6.92682 66.8188 7.1151 66.7107C7.19385 66.6658 7.29416 66.6924 7.33932 66.7713C7.38447 66.8499 7.35729 66.9502 7.27869 66.9955C7.07307 67.1135 6.86369 67.2104 6.65635 67.2835C6.63838 67.2899 6.61994 67.2927 6.60182 67.2927ZM4.6801 67.2521C4.65838 67.2521 4.63603 67.2475 4.61447 67.2383C4.40885 67.1485 4.2076 67.0311 4.0165 66.8891C3.94369 66.8349 3.92869 66.7322 3.9826 66.6594C4.03682 66.5863 4.13963 66.5716 4.21244 66.6254C4.38354 66.7524 4.56291 66.8575 4.74604 66.9374C4.82916 66.9736 4.86713 67.0705 4.83072 67.1535C4.80385 67.2152 4.74354 67.2521 4.6801 67.2521ZM7.739 66.6475C7.69057 66.6475 7.64275 66.6264 7.61025 66.5857C7.55385 66.5144 7.56572 66.4111 7.63666 66.3547C7.79885 66.2258 7.95697 66.0821 8.10666 65.9275C8.16979 65.8621 8.27369 65.8608 8.33885 65.9236C8.40416 65.9868 8.40572 66.0907 8.34275 66.1558C8.18307 66.3207 8.01432 66.4739 7.84104 66.6119C7.81088 66.636 7.77479 66.6475 7.739 66.6475ZM3.62635 66.4833C3.5826 66.4833 3.539 66.466 3.5065 66.4313C3.359 66.2741 3.21479 66.0974 3.07807 65.9063C3.02525 65.8325 3.04229 65.7299 3.11604 65.6769C3.1901 65.6243 3.29244 65.6413 3.34525 65.715C3.47354 65.8947 3.60838 66.0602 3.74604 66.2068C3.80822 66.2729 3.80494 66.3768 3.73885 66.4386C3.70713 66.4685 3.66666 66.4833 3.62635 66.4833ZM8.65197 65.7068C8.61744 65.7068 8.58275 65.6958 8.55322 65.6733C8.48072 65.6188 8.4665 65.5158 8.52119 65.4433C8.65104 65.2714 8.76916 65.093 8.87182 64.9132C8.9165 64.8346 9.01682 64.8074 9.09588 64.8519C9.17463 64.8971 9.20197 64.9972 9.15697 65.0761C9.04729 65.2682 8.9215 65.4585 8.78322 65.6416C8.75088 65.6844 8.70166 65.7068 8.65197 65.7068ZM2.85979 65.421C2.80229 65.421 2.74619 65.3905 2.71619 65.3366C2.60338 65.1346 2.50775 64.9258 2.4315 64.7166C2.40041 64.6313 2.44432 64.5374 2.52963 64.5063C2.61479 64.4752 2.70916 64.5191 2.7401 64.6044C2.81025 64.7972 2.89885 64.9899 3.00291 65.1769C3.04713 65.2561 3.01869 65.3561 2.93947 65.4002C2.91432 65.4143 2.88682 65.421 2.85979 65.421ZM2.41588 64.1913C2.33744 64.1913 2.26822 64.1352 2.25416 64.0554C2.21729 63.8427 2.19854 63.6266 2.19854 63.4119L2.36307 63.3732L2.52713 63.3936C2.52697 63.6075 2.54416 63.8052 2.57775 63.9988C2.59338 64.0883 2.53354 64.1733 2.444 64.1886C2.43463 64.1907 2.4251 64.1913 2.41588 64.1913ZM2.42932 62.885C2.419 62.885 2.40885 62.8841 2.39838 62.8822C2.30916 62.8652 2.25088 62.7789 2.26791 62.69C2.3101 62.47 2.37197 62.2491 2.45229 62.0322C2.48385 61.9472 2.5776 61.9036 2.66338 61.9354C2.74838 61.9668 2.79182 62.0615 2.76025 62.1465C2.68635 62.346 2.62916 62.5496 2.59057 62.7516C2.57541 62.8302 2.50666 62.885 2.42932 62.885ZM2.88025 61.6574C2.85322 61.6574 2.82604 61.6507 2.80088 61.6369C2.7215 61.593 2.69275 61.4929 2.73682 61.4136C2.8451 61.2183 2.96932 61.0269 3.10619 60.8444C3.16041 60.7719 3.26369 60.7569 3.33604 60.8115C3.40869 60.866 3.42338 60.9689 3.36885 61.0414C3.24119 61.2121 3.1251 61.3907 3.02432 61.5729C2.99416 61.6269 2.93791 61.6574 2.88025 61.6574ZM6.1401 61.3235C6.13682 61.3235 6.13353 61.3235 6.1301 61.3232C5.914 61.3104 5.68588 61.2754 5.45244 61.2193C5.36447 61.1982 5.3101 61.1093 5.33119 61.021C5.35229 60.9332 5.43979 60.8793 5.52947 60.8997C5.744 60.9515 5.95275 60.9835 6.14979 60.9954C6.24025 61.0008 6.30932 61.0785 6.30385 61.169C6.29869 61.2561 6.22635 61.3235 6.1401 61.3235ZM6.79291 61.2788C6.71822 61.2788 6.65057 61.2275 6.63307 61.1515C6.61275 61.0633 6.66791 60.975 6.75619 60.9546C6.97104 60.9049 7.13166 60.816 7.22041 60.6974C7.27447 60.6246 7.3776 60.6096 7.45025 60.664C7.52291 60.7182 7.53775 60.8211 7.48354 60.8936C7.34572 61.0783 7.12588 61.2063 6.8301 61.2747C6.8176 61.2775 6.8051 61.2788 6.79291 61.2788ZM4.86541 61.0236C4.8451 61.0236 4.82416 61.0197 4.80416 61.0118C4.59291 60.9268 4.38729 60.8277 4.19275 60.7168C4.11385 60.6719 4.0865 60.5714 4.13135 60.4925C4.17604 60.4136 4.27635 60.3864 4.35541 60.4313C4.53729 60.5349 4.72932 60.6279 4.92682 60.7071C5.01104 60.7407 5.05166 60.8366 5.01791 60.9207C4.99197 60.9847 4.93025 61.0236 4.86541 61.0236ZM3.66416 60.6089C3.62291 60.6089 3.58166 60.5935 3.54963 60.5624C3.48463 60.4993 3.48322 60.3954 3.54635 60.3302C3.5565 60.3199 3.5665 60.3097 3.57666 60.2994C3.414 60.1696 3.26166 60.0288 3.1226 59.8805C3.06057 59.8144 3.06385 59.7105 3.12994 59.6486C3.1965 59.5864 3.3001 59.5896 3.36213 59.656C3.50057 59.8035 3.65369 59.943 3.81744 60.071C3.89338 60.0036 3.97119 59.9385 4.05057 59.8763C4.12197 59.8199 4.22525 59.8327 4.28119 59.9039C4.33729 59.9752 4.32494 60.0785 4.25354 60.1343C4.08791 60.2644 3.92916 60.4075 3.7815 60.5593C3.74963 60.5922 3.70697 60.6089 3.66416 60.6089ZM7.4351 60.3327C7.36307 60.3327 7.29697 60.2849 7.27697 60.2121C7.2551 60.1335 7.22166 60.0488 7.17713 59.9607C7.12854 59.8644 7.07057 59.7785 7.00447 59.7054C6.94369 59.638 6.949 59.5344 7.01635 59.4735C7.08322 59.4132 7.18744 59.418 7.24822 59.4854C7.33385 59.5804 7.40869 59.6904 7.47025 59.8125C7.52463 59.9204 7.56604 60.0252 7.59354 60.1249C7.61775 60.2121 7.5665 60.3025 7.479 60.3269C7.46447 60.3308 7.44979 60.3327 7.4351 60.3327ZM4.69557 59.8007C4.63885 59.8007 4.58369 59.7711 4.55338 59.7186C4.50791 59.6404 4.53479 59.5397 4.61322 59.4944C4.81947 59.375 5.02775 59.2766 5.23275 59.2019C5.31807 59.1715 5.41197 59.2147 5.44338 59.2997C5.47447 59.385 5.43057 59.4793 5.34541 59.5104C5.15838 59.5786 4.9676 59.6688 4.77791 59.7785C4.75166 59.7936 4.72338 59.8007 4.69557 59.8007ZM2.8365 59.4177C2.78307 59.4177 2.73072 59.3918 2.699 59.3436C2.57275 59.1514 2.46463 58.9475 2.37713 58.7377C2.34213 58.654 2.38182 58.5579 2.46557 58.5229C2.54916 58.4891 2.64557 58.5274 2.68025 58.6113C2.75994 58.8024 2.85854 58.9882 2.97354 59.1633C3.02322 59.239 3.00229 59.341 2.92635 59.3907C2.89869 59.4091 2.86744 59.4177 2.8365 59.4177ZM6.57666 59.4164C6.56119 59.4164 6.54572 59.4143 6.5301 59.4097C6.35775 59.3588 6.15682 59.3433 5.944 59.3664C5.85213 59.3754 5.77275 59.3113 5.76291 59.2208C5.75307 59.1307 5.81822 59.0499 5.90838 59.0399C6.16619 59.0116 6.40932 59.0316 6.62307 59.0947C6.7101 59.1204 6.75963 59.2118 6.734 59.2986C6.71291 59.3702 6.64744 59.4164 6.57666 59.4164ZM2.33494 58.213C2.25885 58.213 2.19057 58.1597 2.17447 58.0825C2.12838 57.8625 2.10166 57.6338 2.09494 57.4025C2.09244 57.3118 2.16369 57.2361 2.25432 57.2335C2.34494 57.2302 2.42057 57.3024 2.42338 57.3929C2.42947 57.6049 2.45385 57.8143 2.49588 58.015C2.51447 58.104 2.4576 58.1908 2.36885 58.2094C2.35744 58.2121 2.34604 58.213 2.33494 58.213ZM2.26869 56.9052C2.26557 56.9052 2.2626 56.9052 2.25947 56.9049C2.16885 56.9 2.09947 56.8225 2.10463 56.7321C2.11729 56.5021 2.14057 56.2769 2.17369 56.063C2.18775 55.9738 2.27166 55.9125 2.36119 55.9261C2.45088 55.9402 2.51229 56.024 2.49838 56.1138C2.46682 56.3168 2.44463 56.5311 2.43244 56.75C2.4276 56.8375 2.35525 56.9052 2.26869 56.9052ZM2.47463 55.6118C2.45979 55.6118 2.44463 55.6099 2.42979 55.6057C2.3426 55.581 2.29182 55.4902 2.3165 55.403C2.38025 55.1772 2.45854 54.9621 2.54916 54.7632C2.58682 54.6804 2.68463 54.6446 2.76666 54.6818C2.84932 54.7193 2.88572 54.8168 2.84807 54.8993C2.76432 55.0833 2.69166 55.2829 2.63244 55.4922C2.61213 55.5646 2.54619 55.6118 2.47463 55.6118ZM4.40244 54.5244C4.39635 54.5244 4.39025 54.5241 4.384 54.5235C4.1526 54.4975 3.9251 54.4439 3.70775 54.3638C3.6226 54.3327 3.57916 54.238 3.61041 54.153C3.64197 54.068 3.73697 54.0244 3.82135 54.0558C4.01385 54.1268 4.21541 54.1741 4.42057 54.1969C4.51072 54.2072 4.57557 54.2883 4.56557 54.3785C4.55604 54.4622 4.48494 54.5244 4.40244 54.5244ZM5.05729 54.5138C4.97744 54.5138 4.90744 54.4554 4.8951 54.3743C4.8815 54.2844 4.94307 54.2007 5.03275 54.1872C5.25385 54.1536 5.44963 54.0869 5.58416 53.9986C5.65979 53.9493 5.76182 53.9707 5.81135 54.0464C5.86104 54.1221 5.83979 54.2241 5.76369 54.2738C5.58822 54.3883 5.35244 54.4707 5.08197 54.5118C5.07385 54.5132 5.06557 54.5138 5.05729 54.5138ZM3.02307 54.4257C2.99041 54.4257 2.95713 54.416 2.92838 54.3955C2.85432 54.3432 2.83666 54.2405 2.88916 54.1664C2.93072 54.1077 2.974 54.0507 3.01854 53.9958C2.85588 53.8775 2.70416 53.7411 2.56682 53.5894C2.50588 53.5221 2.51119 53.4182 2.57838 53.3572C2.64557 53.2969 2.74947 53.3018 2.81025 53.3688C2.94057 53.5129 3.08525 53.6414 3.24072 53.7508C3.27635 53.7158 3.3126 53.6819 3.34963 53.6491C3.41713 53.5885 3.52088 53.5949 3.58135 53.6629C3.6415 53.7308 3.63525 53.8347 3.56744 53.8947C3.41854 54.0269 3.28041 54.1821 3.15744 54.3563C3.12541 54.4016 3.07463 54.4257 3.02307 54.4257ZM5.83229 53.755C5.78385 53.755 5.73604 53.7338 5.70354 53.6932C5.69213 53.6788 5.67885 53.6643 5.66385 53.6499C5.55213 53.5433 5.40291 53.4619 5.23385 53.4147C5.14666 53.3904 5.09541 53.2999 5.11979 53.2127C5.14416 53.1252 5.23463 53.0738 5.32197 53.0985C5.54244 53.1597 5.73916 53.2685 5.89104 53.4129C5.91807 53.4391 5.94088 53.4638 5.96057 53.4885C6.01682 53.5597 6.0051 53.663 5.93416 53.7194C5.90416 53.7435 5.86807 53.755 5.83229 53.755ZM4.00166 53.5713C3.94072 53.5713 3.88229 53.5372 3.854 53.4789C3.81416 53.3975 3.84807 53.2994 3.92947 53.2596C4.14822 53.1527 4.37557 53.0835 4.60541 53.053C4.69713 53.0396 4.77775 53.1047 4.78963 53.1944C4.8015 53.2843 4.73822 53.3669 4.64838 53.3788C4.45369 53.4044 4.26025 53.4635 4.07354 53.5546C4.05025 53.5658 4.02572 53.5713 4.00166 53.5713ZM2.30416 53.1129C2.2476 53.1129 2.19244 53.0836 2.16197 53.0311C2.05182 52.8413 1.95463 52.6324 1.87354 52.4108C1.84229 52.3258 1.88588 52.2316 1.97104 52.2C2.05682 52.1693 2.15041 52.2125 2.18182 52.2979C2.2565 52.5015 2.34557 52.6927 2.44619 52.8661C2.49182 52.9447 2.46494 53.045 2.3865 53.0907C2.36057 53.1058 2.33213 53.1129 2.30416 53.1129ZM1.84619 51.8883C1.77057 51.8883 1.70244 51.8357 1.68588 51.7588C1.67275 51.6979 1.66041 51.6357 1.64885 51.5724C1.61885 51.4082 1.59494 51.2491 1.57713 51.0955C1.5665 51.0054 1.63119 50.9239 1.72135 50.9133C1.81369 50.9044 1.89275 50.9679 1.90338 51.0577C1.92057 51.2043 1.94307 51.3563 1.97182 51.5135C1.98275 51.5735 1.99447 51.6318 2.00697 51.6896C2.02604 51.778 1.96979 51.8657 1.88104 51.8846C1.86932 51.8871 1.85775 51.8883 1.84619 51.8883ZM1.69807 50.5857C1.60807 50.5857 1.53479 50.5132 1.53385 50.423L1.53369 50.3768C1.53369 50.1596 1.54666 49.9472 1.57213 49.7463C1.58369 49.6561 1.6665 49.5933 1.75572 49.604C1.84572 49.6155 1.90932 49.6975 1.89791 49.7874C1.874 49.9754 1.86197 50.1735 1.86197 50.3769L1.86213 50.4199C1.86307 50.5104 1.79025 50.5847 1.69963 50.5857C1.69916 50.5857 1.69854 50.5857 1.69807 50.5857ZM1.86947 49.2896C1.85385 49.2896 1.83807 49.2874 1.82244 49.2829C1.73557 49.2566 1.68619 49.1652 1.71213 49.0782C1.77916 48.8543 1.86604 48.64 1.97057 48.4419C2.01291 48.3618 2.11197 48.3313 2.19244 48.3733C2.2726 48.4157 2.30338 48.515 2.26104 48.5952C2.16635 48.7744 2.08744 48.9688 2.02666 49.1725C2.00541 49.2436 1.94025 49.2896 1.86947 49.2896ZM2.47994 48.1382C2.44291 48.1382 2.40557 48.1257 2.37494 48.1C2.30541 48.0419 2.29588 47.9383 2.35416 47.8688C2.50072 47.693 2.66744 47.5314 2.84963 47.3883C2.92104 47.3329 3.024 47.3447 3.0801 47.4161C3.13619 47.4874 3.12369 47.5907 3.05229 47.6468C2.88822 47.7754 2.73822 47.921 2.60619 48.0791C2.57385 48.118 2.52713 48.1382 2.47994 48.1382ZM3.50557 47.3302C3.44541 47.3302 3.3876 47.2972 3.35869 47.2397C3.31791 47.1586 3.35072 47.06 3.43166 47.0194C3.79947 46.8344 4.0765 46.7763 4.08807 46.7738C4.17744 46.7549 4.26354 46.8125 4.28182 46.9014C4.3001 46.9902 4.24307 47.0772 4.15432 47.0955C4.15197 47.0961 3.90541 47.1488 3.57932 47.3127C3.55557 47.3249 3.53025 47.3302 3.50557 47.3302Z" fill="#241726"/>
<path d="M73.1005 47.743C73.0959 47.743 73.091 47.7427 73.0865 47.7424C72.8585 47.7229 72.6294 47.6732 72.4057 47.5943C72.3202 47.5641 72.2754 47.4702 72.3055 47.3849C72.3357 47.2993 72.429 47.2537 72.5151 47.2845C72.7124 47.354 72.9141 47.398 73.1143 47.4154C73.2048 47.423 73.2716 47.5026 73.264 47.593C73.2568 47.6787 73.1849 47.743 73.1005 47.743ZM73.754 47.7113C73.6763 47.7113 73.6073 47.6562 73.5926 47.577C73.576 47.4877 73.6351 47.4021 73.7243 47.3859C73.921 47.3493 74.1182 47.2865 74.3101 47.1988C74.3929 47.1613 74.4898 47.1976 74.5277 47.2799C74.5652 47.3627 74.529 47.4598 74.4465 47.4977C74.2301 47.5965 74.0073 47.6674 73.784 47.7085C73.7738 47.7104 73.7638 47.7113 73.754 47.7113ZM71.8696 47.3188C71.8402 47.3188 71.8104 47.3109 71.7835 47.2945C71.5937 47.1771 71.4094 47.0382 71.2359 46.8807C71.1687 46.8201 71.1635 46.7162 71.2245 46.6488C71.2851 46.5815 71.3893 46.5763 71.4565 46.6376C71.6151 46.7813 71.7832 46.9084 71.956 47.0148C72.0332 47.0626 72.0571 47.1637 72.0094 47.2409C71.9785 47.2912 71.9246 47.3188 71.8696 47.3188ZM74.9437 47.1802C74.8927 47.1802 74.8424 47.1565 74.8104 47.1123C74.7573 47.0385 74.7738 46.9359 74.8474 46.8829C75.009 46.7662 75.1705 46.6285 75.3276 46.4737C75.3926 46.4102 75.4963 46.4109 75.5598 46.4755C75.6235 46.5401 75.6227 46.644 75.5582 46.7077C75.3891 46.8741 75.2149 47.0227 75.0396 47.149C75.0105 47.1702 74.977 47.1802 74.9437 47.1802ZM70.899 46.4432C70.8502 46.4432 70.8021 46.4216 70.7698 46.3804C70.6235 46.1943 70.4976 46.0007 70.3952 45.8054C70.3532 45.7249 70.3841 45.6257 70.4644 45.5834C70.5449 45.542 70.644 45.5724 70.686 45.6526C70.7791 45.8305 70.8941 46.0073 71.0279 46.1776C71.084 46.2488 71.0715 46.3521 71.0002 46.4082C70.9702 46.4316 70.9344 46.4432 70.899 46.4432ZM75.8818 46.2671C75.8457 46.2671 75.8093 46.2552 75.779 46.2309C75.7084 46.1741 75.6973 46.0705 75.754 45.9999C75.8363 45.8973 75.9188 45.7885 76.001 45.6738C76.0465 45.6099 76.0891 45.5465 76.1291 45.4837C76.1784 45.4074 76.2798 45.3849 76.3559 45.4334C76.4324 45.4821 76.4548 45.5838 76.4062 45.6601C76.3629 45.728 76.3169 45.796 76.2682 45.8645C76.1823 45.9851 76.096 46.0988 76.0098 46.206C75.9774 46.2463 75.9299 46.2671 75.8818 46.2671ZM76.5732 45.1555C76.5523 45.1555 76.5307 45.1513 76.5102 45.143C76.4265 45.108 76.3868 45.0123 76.4215 44.9282C76.5037 44.731 76.5638 44.5309 76.6005 44.3335C76.6173 44.2443 76.702 44.1854 76.7923 44.2023C76.8815 44.219 76.9401 44.3046 76.9237 44.3937C76.8826 44.6137 76.8157 44.836 76.7249 45.0545C76.6987 45.1173 76.6376 45.1555 76.5732 45.1555ZM76.8063 43.8745C76.7196 43.8745 76.6471 43.8065 76.6424 43.7188C76.6318 43.5149 76.5971 43.3102 76.5388 43.1104C76.5135 43.0235 76.5635 42.9324 76.6505 42.9068C76.7376 42.8821 76.8287 42.9315 76.854 43.0187C76.9193 43.2429 76.9585 43.4726 76.9704 43.7015C76.9751 43.7923 76.9054 43.8696 76.8149 43.874C76.8121 43.8745 76.8093 43.8745 76.8063 43.8745ZM76.448 42.6224C76.3893 42.6224 76.3326 42.591 76.3029 42.5355C76.2077 42.357 76.0919 42.1805 75.9588 42.0115C75.9029 41.9399 75.9151 41.8366 75.9863 41.7809C76.0576 41.7245 76.1612 41.7376 76.2169 41.808C76.3621 41.9924 76.4885 42.1852 76.5929 42.3809C76.6355 42.461 76.6052 42.5605 76.5252 42.6032C76.5004 42.6163 76.474 42.6224 76.448 42.6224ZM73.2624 41.8655C73.1732 41.8655 73.0999 41.794 73.0982 41.7046C73.0965 41.6141 73.1685 41.5391 73.259 41.5373C73.4423 41.5337 73.644 41.4982 73.8585 41.4318C73.9462 41.4046 74.0371 41.4537 74.064 41.5402C74.0907 41.6268 74.0423 41.7188 73.9557 41.7455C73.7116 41.8209 73.4794 41.8616 73.2655 41.8659C73.2646 41.8655 73.2635 41.8655 73.2624 41.8655ZM72.6346 41.7112C72.6026 41.7112 72.5701 41.7018 72.5418 41.6823C72.3338 41.5393 72.2193 41.3176 72.2193 41.0585C72.2193 41.0259 72.221 40.9921 72.2248 40.9577C72.2343 40.8673 72.3137 40.8005 72.4055 40.8118C72.4957 40.8215 72.561 40.9023 72.5513 40.9924C72.549 41.0152 72.5477 41.0373 72.5477 41.0585C72.5477 41.2105 72.6084 41.3295 72.7279 41.4116C72.8026 41.4629 72.8215 41.5652 72.7702 41.6399C72.7382 41.6865 72.6868 41.7112 72.6346 41.7112ZM75.6434 41.5913C75.603 41.5913 75.5627 41.5766 75.5312 41.5471C75.3932 41.4176 75.2454 41.2954 75.091 41.183C74.9238 41.2955 74.7551 41.3963 74.5884 41.4826C74.5076 41.5243 74.4085 41.4926 74.3671 41.412C74.3255 41.3315 74.3569 41.2323 74.4376 41.1907C74.6169 41.098 74.7993 40.9871 74.9798 40.861C75.0301 40.8257 75.094 40.8232 75.146 40.8482C75.1749 40.8504 75.2038 40.8601 75.2291 40.878C75.4145 41.0088 75.5916 41.1535 75.7557 41.3071C75.8219 41.3693 75.8252 41.4732 75.7632 41.5393C75.7307 41.574 75.6871 41.5913 75.6434 41.5913ZM74.573 40.8351C74.5477 40.8351 74.522 40.8293 74.4977 40.8168C74.3035 40.716 74.1084 40.634 73.9177 40.5727C73.8313 40.5451 73.7838 40.4527 73.8116 40.3662C73.8396 40.2799 73.9324 40.2324 74.0182 40.2604C74.2262 40.3271 74.4384 40.4163 74.6488 40.5249C74.7293 40.5666 74.7607 40.6657 74.719 40.7462C74.6898 40.8026 74.6326 40.8351 74.573 40.8351ZM75.5899 40.7545C75.5441 40.7545 75.4987 40.7355 75.4663 40.6984C75.4066 40.6301 75.4135 40.5262 75.4819 40.4665C75.6391 40.3291 75.7949 40.1801 75.9454 40.0226C76.0079 39.9571 76.1123 39.9549 76.1774 40.0174C76.243 40.0799 76.2454 40.1838 76.1827 40.2496C76.0257 40.4138 75.8627 40.5701 75.698 40.714C75.6666 40.741 75.6282 40.7545 75.5899 40.7545ZM72.6916 40.5826C72.6374 40.5826 72.5843 40.5557 72.553 40.5065C72.5043 40.4302 72.5268 40.3285 72.603 40.2798C72.7674 40.1752 72.9784 40.122 73.2299 40.122C73.2591 40.1195 73.2979 40.1229 73.3332 40.1248C73.4238 40.1293 73.4934 40.2065 73.489 40.297C73.4843 40.3877 73.4068 40.4612 73.3166 40.4526C73.2873 40.451 73.2551 40.448 73.2304 40.4504C73.0446 40.4504 72.889 40.4873 72.7799 40.5568C72.7524 40.5743 72.7218 40.5826 72.6916 40.5826ZM76.4976 39.8074C76.4612 39.8074 76.4246 39.7952 76.3941 39.7705C76.3237 39.7135 76.3132 39.6099 76.3704 39.5396C76.5026 39.377 76.6335 39.2038 76.7598 39.0249C76.8119 38.9509 76.9149 38.9329 76.9887 38.9851C77.0627 39.0374 77.0805 39.1399 77.0284 39.214C76.8979 39.399 76.7623 39.5784 76.6252 39.7468C76.5926 39.787 76.5454 39.8074 76.4976 39.8074ZM77.2545 38.7352C77.2251 38.7352 77.1954 38.7276 77.1687 38.7109C77.0913 38.6634 77.0671 38.5624 77.1148 38.4851C77.1944 38.3552 77.2735 38.2209 77.3515 38.0816C77.3804 38.0298 77.4079 37.9784 77.434 37.9268C77.4752 37.846 77.5741 37.8141 77.6546 37.8543C77.7355 37.8954 77.768 37.9941 77.7271 38.0749C77.6988 38.1304 77.6693 38.1862 77.638 38.242C77.5577 38.3849 77.4766 38.5232 77.3946 38.657C77.3635 38.7073 77.3096 38.7352 77.2545 38.7352ZM77.8277 37.5576C77.8118 37.5576 77.7955 37.5554 77.7794 37.5502C77.6927 37.5237 77.6441 37.432 77.6707 37.3449C77.7334 37.1416 77.7752 36.9363 77.7952 36.7349C77.804 36.6445 77.8815 36.581 77.9748 36.5874C78.0649 36.5963 78.131 36.677 78.122 36.767C78.0998 36.9905 78.0537 37.2173 77.9846 37.4418C77.9629 37.5123 77.898 37.5576 77.8277 37.5576ZM77.9516 36.2599C77.8696 36.2599 77.7987 36.1987 77.7887 36.1149C77.7646 35.9132 77.7179 35.7096 77.6499 35.5107C77.6205 35.4248 77.6665 35.3315 77.7523 35.302C77.8377 35.2734 77.9316 35.3187 77.9607 35.4043C78.0362 35.6252 78.088 35.8513 78.1148 36.0765C78.1255 36.1663 78.0612 36.248 77.9712 36.2587C77.9648 36.2596 77.958 36.2599 77.9516 36.2599ZM77.5355 35.0248C77.4784 35.0248 77.4229 34.9949 77.3926 34.9413C77.2921 34.7643 77.173 34.5888 77.0382 34.4198C76.9816 34.3488 76.9932 34.2455 77.064 34.1891C77.1351 34.133 77.2384 34.144 77.2948 34.2151C77.4404 34.3976 77.5694 34.5874 77.6784 34.7796C77.723 34.8585 77.6954 34.9585 77.6165 35.0032C77.5907 35.018 77.563 35.0248 77.5355 35.0248ZM76.7223 33.9971C76.6813 33.9971 76.6405 33.982 76.6085 33.9515C76.4585 33.8079 76.2952 33.669 76.1227 33.5387C76.0504 33.4838 76.036 33.3809 76.0907 33.3084C76.1452 33.2359 76.2482 33.2221 76.3207 33.2763C76.5034 33.4143 76.6766 33.5618 76.836 33.7141C76.9015 33.777 76.9037 33.8809 76.8409 33.9463C76.8085 33.9802 76.7654 33.9971 76.7223 33.9971ZM72.8048 33.7765C72.4849 33.7765 72.2832 33.561 72.2652 33.2001C72.2607 33.1096 72.3305 33.0327 72.4212 33.0282C72.5079 33.0135 72.5888 33.0934 72.5934 33.1841C72.6065 33.448 72.7404 33.448 72.8048 33.448C72.894 33.448 72.9774 33.5193 72.9796 33.6084C72.9815 33.6976 72.9226 33.772 72.8334 33.7759C72.8309 33.7762 72.8073 33.7765 72.8048 33.7765ZM73.4305 33.5391C73.3769 33.5391 73.3246 33.5132 73.293 33.4651C73.2434 33.3891 73.2643 33.2874 73.3402 33.2377C73.4979 33.1341 73.6593 33.0007 73.8199 32.8404C73.8843 32.777 73.9882 32.7766 74.0521 32.8407C74.116 32.9052 74.116 33.0091 74.0518 33.0732C73.8755 33.249 73.6968 33.3968 73.5205 33.5123C73.4929 33.5305 73.4616 33.5391 73.4305 33.5391ZM75.6771 33.2054C75.6484 33.2054 75.6193 33.198 75.5929 33.182C75.4088 33.072 75.2185 32.9713 75.0276 32.8834C74.9452 32.8455 74.9093 32.748 74.9473 32.6655C74.9851 32.5827 75.0818 32.5465 75.1652 32.5851C75.3668 32.678 75.5674 32.784 75.7616 32.9004C75.8394 32.947 75.8648 33.0476 75.8182 33.1255C75.7874 33.1768 75.7329 33.2054 75.6771 33.2054ZM72.6043 32.7405C72.5648 32.7405 72.5254 32.7265 72.494 32.6979C72.4268 32.637 72.4218 32.533 72.4827 32.466C72.638 32.2948 72.8701 32.1896 73.1724 32.1534C73.2646 32.1421 73.3443 32.2066 73.3552 32.2968C73.366 32.3866 73.3018 32.4684 73.2118 32.4793C72.993 32.5059 72.8251 32.5774 72.7257 32.6868C72.6934 32.7223 72.6488 32.7405 72.6043 32.7405ZM74.4848 32.6579C74.4679 32.6579 74.451 32.6554 74.4341 32.6499C74.4071 32.6413 74.3801 32.6326 74.3532 32.6246C74.3304 32.6227 74.3076 32.6163 74.2868 32.6048C74.1262 32.5585 73.9701 32.5237 73.8215 32.5005C73.732 32.4865 73.6705 32.4027 73.6846 32.3129C73.6985 32.2237 73.7818 32.1635 73.8723 32.176C74.0112 32.1979 74.1552 32.2287 74.3032 32.2684C74.4034 32.1285 74.498 31.9816 74.5854 31.8302C74.6307 31.7516 74.7313 31.7245 74.8098 31.7702C74.8884 31.8155 74.9152 31.9159 74.8699 31.9945C74.7905 32.1318 74.7055 32.2659 74.616 32.3948C74.6471 32.4362 74.6584 32.4916 74.6412 32.5446C74.6185 32.6135 74.5541 32.6579 74.4848 32.6579ZM75.0219 31.4891C75.0002 31.4891 74.9782 31.4849 74.9568 31.4757C74.8735 31.4398 74.8354 31.3429 74.8713 31.2599C74.9554 31.0655 75.029 30.8641 75.0904 30.6612C75.1165 30.5746 75.2084 30.5255 75.2951 30.5515C75.3818 30.5777 75.431 30.6691 75.4048 30.7562C75.3398 30.9713 75.2618 31.1846 75.1729 31.3902C75.146 31.4523 75.0854 31.4891 75.0219 31.4891ZM75.4012 30.2348C75.3915 30.2348 75.3818 30.2338 75.3718 30.2323C75.2826 30.2162 75.2234 30.1305 75.2393 30.0415C75.277 29.833 75.3029 29.6201 75.3162 29.4087C75.3218 29.3182 75.4005 29.2451 75.4905 29.2551C75.581 29.2609 75.6498 29.3388 75.644 29.4293C75.6299 29.6535 75.6024 29.879 75.5627 30.0999C75.5482 30.179 75.4791 30.2348 75.4012 30.2348ZM75.4746 28.9276C75.3909 28.9276 75.3195 28.8641 75.3113 28.7791C75.291 28.5668 75.2502 28.3626 75.1898 28.172C75.1623 28.0854 75.2101 27.993 75.2966 27.9657C75.3835 27.9391 75.4755 27.9862 75.5029 28.0726C75.5702 28.2852 75.616 28.5123 75.6382 28.7477C75.6468 28.8382 75.5807 28.9184 75.4904 28.927C75.4851 28.9271 75.4798 28.9276 75.4746 28.9276ZM75.077 27.6909C75.0215 27.6909 74.9673 27.6626 74.9363 27.612C74.8315 27.4388 74.704 27.2755 74.5571 27.126C74.4937 27.0612 74.4946 26.9573 74.5591 26.8938C74.624 26.8301 74.7274 26.831 74.7915 26.8957C74.9559 27.0632 75.0993 27.247 75.2173 27.4413C75.2643 27.519 75.2396 27.6199 75.162 27.6671C75.1352 27.683 75.1059 27.6909 75.077 27.6909ZM74.1696 26.7562C74.1379 26.7562 74.1057 26.7468 74.0773 26.7276C73.9113 26.6146 73.7268 26.5098 73.5287 26.4165C73.4468 26.378 73.4116 26.2799 73.4502 26.198C73.4887 26.1155 73.5871 26.081 73.6688 26.1195C73.8824 26.2202 74.0821 26.3334 74.2623 26.4562C74.3371 26.5071 74.3566 26.6095 74.3054 26.6843C74.2737 26.7312 74.2219 26.7562 74.1696 26.7562ZM72.9874 26.1907C72.9704 26.1907 72.9532 26.188 72.9363 26.1827C72.739 26.1179 72.5307 26.0615 72.3176 26.0146C72.229 25.9954 72.1729 25.9077 72.1923 25.8193C72.2115 25.7304 72.2985 25.6743 72.3877 25.6938C72.6116 25.7429 72.8307 25.8023 73.0385 25.8702C73.1246 25.8988 73.1716 25.9915 73.1434 26.0777C73.1209 26.1468 73.0565 26.1907 72.9874 26.1907ZM71.704 25.906C71.6971 25.906 71.6901 25.9057 71.6829 25.9048C71.3024 25.856 71.0466 25.8538 71.044 25.8538C70.9534 25.8532 70.8804 25.7791 70.8809 25.6887C70.8815 25.5982 70.9548 25.5254 71.0451 25.5254C71.0565 25.5276 71.311 25.5263 71.7245 25.579C71.8145 25.5905 71.8779 25.6726 71.8665 25.7627C71.8562 25.8454 71.7854 25.906 71.704 25.906Z" fill="#241726"/>
<path d="M64.4503 35.8179C64.4503 35.8179 60.9507 29.9382 62.3295 30.2622C63.7084 30.5863 64.8101 34.2955 64.8101 34.2955C64.8101 34.2955 65.0067 26.8696 65.9339 27.9861C66.8612 29.1027 65.9339 32.9046 65.9339 32.9046C65.9339 32.9046 65.9254 26.7769 67.0887 27.9861C68.252 29.1954 67.0887 33.3683 67.0887 33.3683C67.0887 33.3683 68.252 28.2207 68.8084 29.2182C69.3648 30.2155 67.9739 34.3885 67.9739 34.3885C67.9739 34.3885 69.9212 31.1315 70.2922 31.8791C70.6631 32.6266 67.0887 37.0777 67.0887 37.0777V40.2305L64.0792 39.703L64.4503 35.8179Z" fill="#E38B72"/>
<path d="M66.1638 36.2517C66.1493 36.2517 66.1344 36.2499 66.1197 36.2456C66.0325 36.2216 65.9813 36.1311 66.0054 36.0436C66.0857 35.753 66.2177 34.9208 65.8672 34.5659C65.67 34.3661 65.3285 34.3283 64.8521 34.4538C64.7647 34.4781 64.6747 34.4245 64.6515 34.3367C64.6283 34.2492 64.6808 34.1594 64.7683 34.1363C65.3666 33.9788 65.8152 34.0461 66.1015 34.3358C66.6565 34.8986 66.3355 36.0816 66.3218 36.1316C66.3018 36.2044 66.2357 36.2517 66.1638 36.2517Z" fill="#241726"/>
<path d="M65.934 33.0689C65.8468 33.0689 65.7742 33.0003 65.7701 32.912C65.739 32.2298 65.8796 30.3305 65.8857 30.25C65.8923 30.1595 65.9721 30.0903 66.0617 30.0983C66.1521 30.105 66.22 30.1839 66.2132 30.2744C66.2118 30.2939 66.0681 32.2347 66.0982 32.8972C66.1025 32.9877 66.0321 33.0647 65.9417 33.0684C65.9392 33.0689 65.9367 33.0689 65.934 33.0689Z" fill="#241726"/>
<path d="M67.0887 33.5318C67.0795 33.5318 67.0701 33.5312 67.0608 33.5296C66.9712 33.5143 66.9114 33.4292 66.9267 33.3398L67.4247 30.4392C67.44 30.35 67.525 30.2898 67.6142 30.3051C67.7037 30.3204 67.7636 30.4054 67.7483 30.495L67.2503 33.3956C67.2367 33.4754 67.1673 33.5318 67.0887 33.5318Z" fill="#241726"/>
<path d="M63.1416 36.6667C63.1416 36.6667 63.2795 46.657 62.576 46.9353C61.8726 47.2136 55.1202 42.9993 55.1202 42.9993L39.3537 44.1831L23.5607 45.5003C23.5607 45.5003 8.69727 52.2903 8.55665 54.5412C8.41602 56.792 15.8893 60.9179 15.8893 60.9179L19.371 57.2779L12.6345 54.8161L21.5921 51.6045C19.7966 58.124 19.1466 63.6083 19.1466 63.6083L31.8904 63.3942L35.2656 72.5414L39.2187 72.2029L39.9713 63.2584L41.2571 63.2368L42.0116 72.2029L45.9648 72.5414L49.4488 63.0992L63.1105 62.8697C63.1105 62.8697 61.1534 55.6214 57.4202 47.9598C60.2199 48.7979 63.8057 49.8729 64.3766 50.0525C65.3335 50.3532 67.9424 38.159 67.9424 38.159L63.1416 36.6667Z" fill="#DF4F3E"/>
<path d="M37.4442 41.3941L38.6337 62.1308L18.1509 62.1859L18.5729 66.3511L64.3773 64.9795L63.9246 60.7853L41.129 61.7091C41.129 61.7091 40.4271 40.6075 39.7942 40.713C39.1613 40.8184 37.4442 41.3941 37.4442 41.3941Z" fill="white"/>
<path d="M18.5731 66.5153C18.4891 66.5153 18.4181 66.4519 18.4097 66.3678L17.9877 62.2025C17.983 62.1563 17.9981 62.1105 18.0291 62.0758C18.0602 62.0414 18.1042 62.0216 18.1506 62.0216L38.4602 61.9667L37.2803 41.4031C37.2759 41.3294 37.3219 41.2617 37.392 41.2383C37.4627 41.2145 39.1287 40.6575 39.7675 40.551C39.8131 40.5436 39.8902 40.565 39.9269 40.5952C40.5536 41.1083 41.1203 56.5325 41.2878 61.5381L63.9183 60.621C64.0011 60.6197 64.0789 60.6816 64.0881 60.7675L64.5406 64.9616C64.5456 65.0072 64.5312 65.0527 64.5011 65.087C64.4711 65.1217 64.428 65.1419 64.3823 65.1435L18.5781 66.5153C18.5764 66.5153 18.5747 66.5153 18.5731 66.5153ZM18.3328 62.3494L18.7212 66.1824L64.1952 64.8206L63.7783 60.9556L41.1359 61.8733C41.0944 61.8736 41.0498 61.8592 41.0177 61.8294C40.9856 61.7995 40.9669 61.7581 40.9653 61.7145C40.7031 53.8347 40.1645 41.9724 39.7339 40.8916C39.1709 41.0045 37.9928 41.3861 37.6153 41.5106L38.7978 62.1216C38.8003 62.1664 38.7844 62.2108 38.7534 62.2434C38.7227 62.2761 38.6795 62.2952 38.6344 62.2952L18.3328 62.3494Z" fill="#241726"/>
<path d="M23.3979 16.7632C23.3979 16.7632 34.9885 9.4943 40.3343 13.7146C45.6799 17.9349 57.8157 27.9879 37.6765 34.5587C17.5373 41.1295 18.4743 19.9987 23.3979 16.7632Z" fill="#E38B72"/>
<path d="M23.8344 18.7871C23.8344 18.7871 17.3494 29.5598 27.0561 33.9207C36.7629 38.2817 28.6739 24.9929 35.8483 24.9226C43.0227 24.8523 42.501 33.9595 45.6252 28.5098C50.0564 20.7803 37.8372 14.8459 39.666 14.5645C41.4947 14.2831 42.7571 13.794 43.3041 14.8642C44.9219 18.0293 63.8427 20.7725 61.7325 31.3232C59.6224 41.8739 53.1513 49.4704 34.5822 50.0331C16.013 50.5961 11.0191 38.7793 15.8021 29.9167C20.585 21.0542 18.0735 19.5025 19.621 19.3618C21.1683 19.2212 23.8344 18.7871 23.8344 18.7871Z" fill="#F4F1E3"/>
<path d="M36.5864 27.201C36.035 27.201 34.5328 26.0377 33.8852 25.5143C33.8147 25.4576 33.8038 25.354 33.8606 25.2833C33.9178 25.2132 34.0208 25.2016 34.0917 25.259C35.025 26.013 36.1583 26.8 36.5084 26.8722C36.4809 26.354 35.4627 23.9216 34.4338 21.738C34.3952 21.656 34.4303 21.5582 34.5122 21.5196C34.5945 21.4811 34.6923 21.5157 34.7308 21.5982C35.4266 23.0744 37.0217 26.5621 36.8084 27.061C36.7819 27.1229 36.7342 27.1682 36.6741 27.1883C36.6483 27.1968 36.6191 27.201 36.5864 27.201Z" fill="#241726"/>
<path d="M37.3719 32.126C37.2711 32.126 37.1532 32.0978 37.0191 32.0209C35.4693 31.1331 33.9072 28.0326 33.8416 27.9012C33.801 27.8201 33.834 27.7212 33.9151 27.6809C33.996 27.6401 34.0949 27.6735 34.1354 27.7543C34.151 27.7857 35.7185 30.8974 37.1824 31.736C37.3449 31.8287 37.4296 31.797 37.4793 31.7649C38.083 31.3737 38.0176 28.3217 37.8344 26.4899C37.8254 26.3998 37.8911 26.3193 37.9815 26.3103C38.0733 26.3003 38.1522 26.367 38.1613 26.4571C38.2118 26.9626 38.6269 31.4123 37.6579 32.0403C37.5876 32.086 37.4918 32.126 37.3719 32.126Z" fill="#241726"/>
<path d="M28.4327 26.6384C26.4936 26.6384 25.5302 22.875 25.4894 22.7118C25.4672 22.624 25.5208 22.5348 25.6088 22.5126C25.697 22.4911 25.7859 22.544 25.808 22.6323C25.8177 22.6701 26.7878 26.4403 28.5205 26.3065C28.813 26.285 29.0202 26.1703 29.1536 25.9556C29.7225 25.0415 28.8116 22.7564 28.8022 22.7336C28.7683 22.6492 28.8089 22.5536 28.8931 22.5196C28.9764 22.4864 29.0728 22.5264 29.1067 22.6104C29.1474 22.7104 30.0891 25.0736 29.4325 26.1287C29.2424 26.4343 28.9436 26.6043 28.5447 26.6342C28.507 26.6368 28.4697 26.6384 28.4327 26.6384Z" fill="#241726"/>
<path d="M39.9255 23.6996C39.8632 23.6996 39.795 23.6926 39.7203 23.6768C37.9778 23.3051 37.5313 20.0873 37.5132 19.9504C37.5013 19.8606 37.5644 19.7782 37.6542 19.7663C37.7439 19.7496 37.8266 19.8173 37.8386 19.9074C37.8428 19.9385 38.2721 23.032 39.7888 23.3556C40.0185 23.4043 40.116 23.3309 40.168 23.2709C40.6047 22.7709 40.0691 20.642 39.6289 19.4174C39.5983 19.3321 39.6425 19.2382 39.728 19.2074C39.8125 19.1773 39.9071 19.2212 39.938 19.3065C40.0611 19.649 41.1216 22.6782 40.4153 23.4868C40.325 23.5906 40.1714 23.6996 39.9255 23.6996Z" fill="#241726"/>
<path d="M27.3014 30.3191C28.0177 29.8896 28.2502 28.9608 27.8208 28.2445C27.3914 27.5282 26.4625 27.2956 25.7462 27.7251C25.0299 28.1545 24.7973 29.0833 25.2268 29.7996C25.6562 30.5159 26.585 30.7485 27.3014 30.3191Z" fill="#DF4F3E"/>
<path d="M42.9873 25.0433C43.8224 25.0433 44.4995 24.3662 44.4995 23.5311C44.4995 22.6959 43.8224 22.0189 42.9873 22.0189C42.1521 22.0189 41.4751 22.6959 41.4751 23.5311C41.4751 24.3662 42.1521 25.0433 42.9873 25.0433Z" fill="#DF4F3E"/>
<path d="M37.3905 12.2904C37.3905 12.2904 33.7225 6.35352 27.5758 3.25868C21.4289 0.163838 12.4258 10.7848 12.4258 10.7848L20.5147 8.53399C20.5147 8.53399 18.988 16.0145 19.6209 16.8362C20.2537 17.6579 37.3905 12.2904 37.3905 12.2904Z" fill="#DF4F3E"/>
<path d="M11.6532 13.0373C12.8459 13.0373 13.8127 12.0705 13.8127 10.8778C13.8127 9.68512 12.8459 8.71826 11.6532 8.71826C10.4605 8.71826 9.49365 9.68512 9.49365 10.8778C9.49365 12.0705 10.4605 13.0373 11.6532 13.0373Z" fill="white"/>
<path d="M11.6533 13.2015C10.3721 13.2015 9.32959 12.1592 9.32959 10.878C9.32959 9.5967 10.3721 8.55405 11.6533 8.55405C12.9346 8.55405 13.9771 9.5967 13.9771 10.878C13.9771 12.1592 12.9346 13.2015 11.6533 13.2015ZM11.6533 8.88233C10.553 8.88233 9.65787 9.77748 9.65787 10.8778C9.65787 11.9778 10.553 12.873 11.6533 12.873C12.7535 12.873 13.6487 11.9778 13.6487 10.8778C13.6487 9.77748 12.7535 8.88233 11.6533 8.88233Z" fill="#241726"/>
<path d="M18.5729 16.3941C18.5729 16.3941 39.0648 8.61848 40.7479 10.38C42.4311 12.1416 43.304 14.8641 43.304 14.8641C43.304 14.8641 19.4595 22.7044 18.9672 21.6682C18.4747 20.6319 18.5729 16.3941 18.5729 16.3941Z" fill="white"/>
<path d="M19.3035 21.9257C18.9073 21.9257 18.8577 21.8214 18.8184 21.7386C18.3151 20.6792 18.4044 16.565 18.4085 16.3902C18.4101 16.3235 18.4519 16.2641 18.5144 16.2403C20.6221 15.4408 39.1576 8.47878 40.8662 10.2663C42.5559 12.035 43.4238 14.701 43.4599 14.8138C43.4876 14.8997 43.4405 14.9917 43.3549 15.0197C43.2952 15.0396 37.3232 17.0014 31.3676 18.8116C22.9041 21.3844 20.2055 21.9257 19.3035 21.9257ZM19.1059 21.5777C20.0496 22.0439 34.2257 17.6728 43.0943 14.76C42.8823 14.1632 42.0388 11.9691 40.6291 10.4935C39.4535 9.26284 26.9335 13.4027 18.7351 16.5083C18.7241 17.1742 18.6887 20.6483 19.1059 21.5777Z" fill="#241726"/>
<path d="M20.1384 27.5864C21.0077 26.7171 21.0077 25.3077 20.1384 24.4384C19.2691 23.5692 17.8597 23.5692 16.9905 24.4384C16.1212 25.3077 16.1212 26.7171 16.9905 27.5864C17.8597 28.4556 19.2691 28.4556 20.1384 27.5864Z" fill="#E38B72"/>
<path d="M47.3509 20.032C48.5803 20.032 49.5769 19.0354 49.5769 17.806C49.5769 16.5767 48.5803 15.5801 47.3509 15.5801C46.1216 15.5801 45.125 16.5767 45.125 17.806C45.125 19.0354 46.1216 20.032 47.3509 20.032Z" fill="#E38B72"/>
<path d="M19.2219 26.8944C19.1422 26.8944 19.0722 26.8364 19.0597 26.7552C18.8869 25.6391 18.575 25.3199 18.3441 25.2485C17.9835 25.1378 17.5879 25.5535 17.5836 25.5574C17.5221 25.6238 17.4183 25.6275 17.3516 25.5653C17.2854 25.5035 17.2815 25.4002 17.3433 25.3338C17.365 25.3103 17.8818 24.7631 18.4394 24.9341C18.9066 25.0772 19.2244 25.673 19.3843 26.7052C19.398 26.7947 19.3368 26.8786 19.2472 26.8925C19.2386 26.8938 19.2302 26.8944 19.2219 26.8944Z" fill="#241726"/>
<path d="M47.0249 19.3023C46.9536 19.3023 46.8882 19.2558 46.8672 19.184C46.5635 18.1436 46.5902 17.3748 46.9463 16.9001C47.281 16.4537 47.7775 16.4486 47.7986 16.4486C47.8894 16.4486 47.9628 16.522 47.9628 16.6128C47.9628 16.7033 47.8899 16.7764 47.7997 16.777C47.7852 16.7773 47.4392 16.7856 47.2055 17.1019C46.9224 17.4848 46.9144 18.1731 47.1825 19.0923C47.2078 19.1792 47.158 19.2703 47.071 19.2956C47.0555 19.3001 47.04 19.3023 47.0249 19.3023Z" fill="#241726"/>
<path d="M18.0522 5.60016C18.0522 5.60016 20.1624 8.39344 22.9758 7.33828C25.7894 6.28328 24.7343 3.32906 26.563 6.1425C28.3918 8.95594 32.9357 7.05172 32.8707 6.99344C32.8057 6.93515 29.2358 2.90687 26.2115 1.9925C23.1869 1.07828 18.0522 5.60016 18.0522 5.60016Z" fill="#F4F1E3"/>
<path d="M18.1504 58.2272C18.1504 58.2272 21.1824 59.7791 20.1699 62.6018C19.1574 65.4243 13.5943 67.1124 14.7286 65.4546C15.4144 64.4522 18.5269 63.5027 18.5269 63.5027C18.5269 63.5027 14.4508 64.843 13.6765 63.9775C13.2516 63.5027 17.5558 62.8124 17.7213 62.8099C17.8868 62.8075 15.2563 63.1383 14.6233 62.1863C13.9904 61.2343 17.6685 62.9752 18.1505 61.1288C18.6326 59.2824 17.3138 59.3879 17.3138 59.3879L18.1504 58.2272Z" fill="#E38B72"/>
<path d="M20.5344 55.86C20.5344 55.86 59.6883 52.9981 59.7587 53.209C59.829 53.42 60.8015 55.8806 60.8015 55.8806L20.1108 57.8583L20.5344 55.86Z" fill="#241726"/>
<path d="M35.6851 53.5324L43.0219 52.9069V58.2275L36.431 58.891L35.6851 53.5324Z" fill="#E1AF01"/>
<path d="M37.5195 54.6974L41.188 54.3848V57.0451L37.8925 57.3768L37.5195 54.6974Z" fill="#241726"/>
<path d="M20.5141 8.69808C20.4423 8.69808 20.3763 8.65058 20.3562 8.57777C20.3318 8.49058 20.3829 8.40011 20.4702 8.37574C21.4212 8.11074 23.4827 8.22011 23.5701 8.22527C23.6607 8.23011 23.7299 8.30777 23.7249 8.39808C23.7201 8.48855 23.6432 8.56105 23.5521 8.55292C23.5313 8.5523 21.4571 8.44199 20.5585 8.69183C20.5437 8.69605 20.5287 8.69808 20.5141 8.69808Z" fill="#241726"/>
<path d="M35.4497 14.5395C35.4269 14.5395 35.4038 14.5346 35.3819 14.5248C35.2992 14.4873 35.2628 14.3898 35.3005 14.3073C35.48 13.9131 35.7119 13.6934 35.9897 13.6537C36.3983 13.5973 36.7217 13.9648 36.7353 13.9809C36.7944 14.0495 36.7866 14.1524 36.7183 14.2118C36.65 14.2712 36.5464 14.2634 36.4867 14.1954C36.4258 14.1259 36.2257 13.952 36.0349 13.979C35.8364 14.0082 35.6885 14.2477 35.5994 14.4434C35.5717 14.504 35.5121 14.5395 35.4497 14.5395Z" fill="#241726"/>
<path d="M37.1957 15.5226C37.1729 15.5226 37.1498 15.5177 37.1279 15.5077C37.0453 15.4702 37.009 15.3727 37.0465 15.2902C37.2259 14.896 37.4578 14.6763 37.7357 14.6366C38.1443 14.579 38.4678 14.9477 38.4814 14.9638C38.5404 15.0324 38.5326 15.1354 38.4643 15.1948C38.3961 15.2541 38.2926 15.2463 38.2328 15.1784C38.1718 15.1088 37.9701 14.9362 37.7809 14.9619C37.5823 14.9912 37.4345 15.2307 37.3454 15.4263C37.3178 15.4869 37.2582 15.5226 37.1957 15.5226Z" fill="#241726"/>
<path d="M33.4013 15.0104C33.3785 15.0104 33.3553 15.0056 33.3335 14.9957C33.251 14.9582 33.2146 14.8607 33.2521 14.7782C33.4314 14.384 33.6635 14.164 33.9413 14.1243C34.3519 14.0667 34.6733 14.4354 34.6869 14.4515C34.746 14.5201 34.7382 14.6231 34.6699 14.6824C34.6014 14.7418 34.498 14.7345 34.4383 14.666C34.3774 14.5965 34.1803 14.4177 33.9864 14.4499C33.788 14.4788 33.64 14.7184 33.5508 14.9143C33.5233 14.9748 33.4636 15.0104 33.4013 15.0104Z" fill="#241726"/>
<path d="M35.1308 15.901C35.108 15.901 35.085 15.8962 35.063 15.8863C34.9803 15.8488 34.9441 15.7513 34.9816 15.6688C35.161 15.2746 35.3928 15.0546 35.6708 15.0149C36.0805 14.9562 36.403 15.326 36.4164 15.3421C36.4755 15.4107 36.4677 15.5137 36.3994 15.573C36.331 15.6324 36.2275 15.6251 36.1678 15.5566C36.1069 15.4871 35.9097 15.3077 35.716 15.3405C35.5175 15.3695 35.3696 15.609 35.2805 15.8049C35.2528 15.8654 35.1933 15.901 35.1308 15.901Z" fill="#241726"/>
<path d="M33.0132 16.5873C32.9904 16.5873 32.9673 16.5824 32.9454 16.5726C32.8627 16.5351 32.8263 16.4376 32.864 16.3551C33.0433 15.9609 33.2754 15.7409 33.5532 15.7012C33.9635 15.6424 34.2852 16.0123 34.2988 16.0284C34.3579 16.097 34.3501 16.1999 34.2818 16.2593C34.2133 16.3187 34.1099 16.3112 34.0502 16.2429C33.9893 16.1734 33.7905 15.9949 33.5984 16.0268C33.3999 16.0557 33.2519 16.2952 33.1627 16.4912C33.1352 16.5518 33.0755 16.5873 33.0132 16.5873Z" fill="#241726"/>
<path d="M62.873 36.088L62.6875 37.8191L68.375 39.6427L69.0859 37.6644L62.873 36.088Z" fill="white"/>
<path d="M68.375 39.8071C68.3583 39.8071 68.3414 39.8046 68.3248 39.7994L62.6375 37.9755C62.5634 37.9514 62.5161 37.8789 62.5244 37.8013L62.7097 36.0704C62.7147 36.0232 62.7402 35.9802 62.7791 35.9533C62.8181 35.9261 62.8672 35.9171 62.9133 35.9289L69.1263 37.5057C69.1711 37.5169 69.2092 37.5468 69.2308 37.5877C69.2527 37.6285 69.2559 37.6766 69.2405 37.7202L68.5295 39.6985C68.5055 39.765 68.4425 39.8071 68.375 39.8071ZM62.8652 37.7035L68.2742 39.438L68.8703 37.7796L63.0161 36.2936L62.8652 37.7035Z" fill="#241726"/>
<path d="M18.3432 55.8989L14.499 60.6188L16.0392 61.7095L20.3711 56.6055L18.3432 55.8989Z" fill="white"/>
<path d="M16.0389 61.8736C16.0061 61.8736 15.9728 61.8636 15.9441 61.8435L14.4038 60.7527C14.3667 60.7264 14.3422 60.686 14.336 60.6408C14.3299 60.596 14.3427 60.5503 14.3714 60.515L18.2158 55.7952C18.2594 55.7413 18.3319 55.7205 18.3972 55.7439L20.425 56.4505C20.4761 56.4681 20.5152 56.5102 20.5294 56.562C20.5436 56.6144 20.5311 56.6705 20.4963 56.7116L16.1644 61.8155C16.1321 61.8538 16.0858 61.8736 16.0389 61.8736ZM14.7372 60.5863L16.0113 61.4885L20.091 56.6817L18.398 56.0919L14.7372 60.5863Z" fill="#241726"/>
<path d="M34.3027 48.895C34.0695 48.895 33.824 48.8748 33.566 48.8304C32.1084 48.5803 31.1232 47.9815 30.5068 47.3095C30.4993 47.3187 30.4918 47.3281 30.484 47.337C29.9798 47.9406 28.8246 48.857 26.752 48.2068C24.8973 47.6254 24.0499 46.607 23.7295 45.6596C23.337 46.1353 22.853 46.5484 22.3291 46.7418C21.7352 46.9612 20.8441 46.9871 19.9799 45.8628C19.0796 44.6915 18.9152 43.7214 18.9866 43.0301C18.7623 43.0609 18.5312 43.0718 18.299 43.0584C17.3016 42.9996 16.5515 42.4898 16.1868 41.6224C15.5985 40.2235 16.0912 38.8739 16.7716 38.0351C16.3049 37.7435 15.7598 37.1787 15.6337 36.107C15.474 34.75 16.2135 33.5851 17.0601 32.8443C16.6659 32.5582 16.3587 32.1426 16.183 31.6368C15.9605 30.9964 15.9823 30.4431 16.2474 29.9918C16.6898 29.2387 17.6443 29.0631 17.6848 29.0559C17.7745 29.0385 17.859 29.0995 17.8748 29.1887C17.8907 29.2782 17.8312 29.3632 17.742 29.3792C17.7337 29.3807 16.8935 29.5379 16.5295 30.1598C16.3163 30.5239 16.3041 30.9846 16.4932 31.529C16.6871 32.0871 17.0154 32.4239 17.3277 32.6268C17.7249 32.3267 18.1274 32.1226 18.4571 32.0367C19.0599 31.8807 19.2456 32.1582 19.2979 32.2849C19.3966 32.5239 19.3715 32.7548 19.227 32.9357C19.0062 33.2115 18.5268 33.3331 18.0038 33.2423C17.7746 33.2032 17.5574 33.1298 17.3566 33.0268C16.551 33.7045 15.8112 34.8068 15.9598 36.0685C16.0751 37.0484 16.5813 37.5423 16.9938 37.7854C17.2054 37.5695 17.4252 37.4031 17.6295 37.2985C18.097 37.0593 18.4984 37.1182 18.7041 37.4551C18.8874 37.7556 18.7862 37.9721 18.7096 38.0742C18.4938 38.3624 17.9487 38.4578 17.3838 38.3057C17.3093 38.2859 17.1991 38.2509 17.0696 38.1935C16.439 38.9492 15.9501 40.2137 16.4893 41.4957C16.8912 42.4512 17.7055 42.6946 18.318 42.7309C18.5604 42.7446 18.8063 42.7276 19.0441 42.6876C19.0831 42.5234 19.1337 42.382 19.1845 42.2649C19.4448 41.6674 19.9446 41.2204 20.3999 41.1773C20.6246 41.1562 20.811 41.237 20.9254 41.4049C21.0513 41.5893 21.0527 41.8107 20.9298 42.0278C20.7146 42.4071 20.084 42.794 19.3251 42.9684C19.2351 43.5945 19.3584 44.5159 20.2399 45.6628C20.7376 46.3103 21.2849 46.5996 21.8676 46.5214C22.5493 46.4306 23.1713 45.8684 23.6227 45.2612C23.5254 44.766 23.5616 44.3125 23.6559 43.9806C23.8113 43.4331 24.1327 43.1217 24.4552 43.2031C24.5266 43.2214 24.6941 43.2939 24.7088 43.5729C24.7288 43.9596 24.444 44.6728 23.9762 45.3359C24.2084 46.2539 24.9732 47.3054 26.8496 47.8934C28.7409 48.4867 29.7799 47.6679 30.2315 47.1268C30.2516 47.1024 30.2716 47.0781 30.291 47.0531C29.8281 46.4485 29.6413 45.8139 29.6604 45.3379C29.684 44.7429 30.0037 44.3459 30.4949 44.301C30.7649 44.277 30.9863 44.4043 31.1202 44.66C31.3868 45.1682 31.2671 46.191 30.7024 47.0439C31.2698 47.6828 32.2063 48.2639 33.6212 48.5067C35.7384 48.872 36.9445 47.461 37.3648 46.8385C37.4863 46.6579 37.591 46.4748 37.6791 46.2943C37.2295 45.6334 37.0191 44.9649 37.1645 44.5615C37.2423 44.3457 37.4163 44.2096 37.6546 44.1782C37.8998 44.1465 38.1012 44.2385 38.2243 44.4381C38.4582 44.8165 38.3793 45.5264 38.0573 46.261C38.1595 46.3981 38.274 46.5362 38.4013 46.6732C38.9304 47.2415 40.372 48.5056 42.3349 47.9542C44.0988 47.459 44.9557 45.9445 45.1882 44.6489C44.4807 44.1489 44.0171 43.5632 43.9318 43.109C43.8587 42.719 44.0559 42.4268 44.4591 42.3271C44.9396 42.2092 45.3249 42.5173 45.4924 43.1528C45.5874 43.5123 45.608 43.9796 45.5391 44.4879C46.4232 45.069 47.6863 45.521 49.0968 45.3375C50.3179 45.1793 50.832 44.0773 51.048 43.1809C51.1902 42.5904 51.2326 41.9582 51.2015 41.3695C50.3571 40.7762 49.7398 40.0042 49.6249 39.4832C49.541 39.1021 49.7163 38.9159 49.8282 38.8389C50.0982 38.6524 50.3866 38.6467 50.6405 38.8209C51.1185 39.149 51.4385 40.1054 51.519 41.1898C52.0079 41.5103 52.5659 41.7635 53.1266 41.8601C54.2184 42.0471 55.0895 41.6324 55.7166 40.626C56.7788 38.922 56.2768 37.6064 55.8281 36.9223C55.444 36.9335 55.0887 36.8818 54.7829 36.7803C54.2102 36.5901 53.8541 36.234 53.8302 35.8278C53.8191 35.641 53.9034 35.4984 54.0613 35.4359C54.4682 35.2759 55.2752 35.7137 55.8599 36.4148C55.9018 36.4648 55.9473 36.5223 55.9946 36.587C56.9088 36.5145 57.9695 36.059 58.8215 35.0474C59.9046 33.7614 59.293 31.9842 58.4032 30.8876C58.1263 31.0454 57.8782 31.0868 57.7216 31.0939C57.214 31.1143 56.729 30.8556 56.5682 30.4714C56.4618 30.2164 56.5199 29.9598 56.7281 29.7678C57.0512 29.4692 57.6407 29.6565 58.2666 30.2543C58.3312 30.3162 58.396 30.3823 58.4607 30.4524C58.8193 30.1526 59.121 29.6468 59.3316 28.9729C59.8852 27.2018 58.6885 25.7939 57.5421 25.2396C57.4312 25.6085 57.2135 25.8499 57.0676 25.9779C56.6018 26.3871 55.9206 26.502 55.5488 26.2335C55.4224 26.1421 55.1543 25.8685 55.3955 25.2984C55.6555 24.6839 56.389 24.4854 57.2798 24.7792C57.2859 24.4279 57.1756 24.0306 56.9476 23.6095C56.1934 22.2149 54.9377 21.7926 53.9848 21.8096C53.9704 21.9279 53.944 22.0467 53.9054 22.1649C53.7221 22.7262 53.3031 23.1403 52.9091 23.1493C52.6634 23.1484 52.4666 23.0021 52.3638 22.7301C52.2107 22.3251 52.436 21.927 52.9518 21.6914C53.1598 21.596 53.4021 21.53 53.6654 21.4979C53.6431 21.125 53.4746 20.6551 52.912 20.2237C51.1321 18.859 49.4265 20.4662 49.3548 20.5354C49.2896 20.5979 49.1857 20.5964 49.1226 20.5309C49.0598 20.4657 49.0615 20.3618 49.1266 20.299C49.1462 20.2798 51.106 18.4251 53.1118 19.9632C53.6513 20.3767 53.957 20.9132 53.9941 21.476C55.102 21.4581 56.4587 22.0148 57.2365 23.4529C57.5554 24.0428 57.6393 24.5245 57.6056 24.9068C58.8895 25.4906 60.2706 27.0692 59.6449 29.071C59.381 29.9159 59.0207 30.411 58.6734 30.6996C59.596 31.8459 60.3302 33.7654 59.0726 35.259C58.2134 36.2792 57.1485 36.7728 56.1973 36.8937C56.6615 37.6798 57.0806 39.0585 55.9952 40.7998C55.1173 42.2084 53.9204 42.3293 53.0709 42.1837C52.5337 42.0914 52.0093 41.8723 51.5374 41.5884C51.548 42.149 51.4948 42.7273 51.367 43.2578C51.0273 44.6667 50.2359 45.521 49.1384 45.6632C47.7415 45.8442 46.4343 45.4301 45.4776 44.8403C45.1887 46.2101 44.2623 47.7543 42.4234 48.2704C40.2868 48.8706 38.7305 47.5096 38.1605 46.8968C38.0673 46.7968 37.9791 46.6942 37.8968 46.5906C37.819 46.7362 37.7321 46.8809 37.6365 47.0223C37.2326 47.622 36.1546 48.8946 34.3027 48.895ZM30.5615 44.6262C30.5488 44.6262 30.5365 44.6271 30.5251 44.6281C30.2062 44.657 30.0057 44.9273 29.9888 45.351C29.9731 45.7465 30.1215 46.2654 30.486 46.7731C30.9323 46.0476 31.0384 45.2101 30.8296 44.8121C30.7474 44.6553 30.6434 44.6262 30.5615 44.6262ZM37.7491 44.5004C37.7327 44.5004 37.7157 44.5014 37.6974 44.504C37.5807 44.519 37.5096 44.5729 37.4735 44.6728C37.3852 44.9181 37.5066 45.397 37.8349 45.9332C38.0535 45.3504 38.087 44.8403 37.9451 44.6106C37.899 44.5354 37.8373 44.5004 37.7491 44.5004ZM24.3526 43.5139C24.2602 43.5139 24.0796 43.6924 23.9724 44.0703C23.912 44.2832 23.8791 44.5526 23.8995 44.8518C24.0362 44.6276 24.146 44.4106 24.2237 44.222C24.4223 43.7396 24.3862 43.5417 24.3656 43.5154C24.3615 43.5145 24.357 43.5139 24.3526 43.5139ZM44.6491 42.6315C44.6141 42.6315 44.5773 42.636 44.5384 42.6456C44.301 42.7043 44.2137 42.8284 44.2549 43.0481C44.3152 43.3689 44.6721 43.8396 45.2391 44.2742C45.2748 43.8806 45.2505 43.5214 45.1751 43.236C45.113 43.0001 44.9649 42.6315 44.6491 42.6315ZM20.4693 41.5023C20.4573 41.5023 20.4446 41.5029 20.4312 41.5042C20.1427 41.531 19.7254 41.8464 19.486 42.3957C19.4588 42.4582 19.432 42.5285 19.4074 42.6065C19.9968 42.4432 20.4838 42.1489 20.6445 41.8656C20.7251 41.7232 20.6888 41.6398 20.6546 41.5895C20.6391 41.5671 20.5949 41.5023 20.4693 41.5023ZM50.2534 39.0224C50.1773 39.0224 50.0987 39.0514 50.0149 39.109C49.9859 39.1289 49.8971 39.1901 49.946 39.4121C50.0382 39.831 50.5118 40.4307 51.1651 40.9368C51.0604 40.0478 50.7885 39.3204 50.4551 39.0914C50.3881 39.0456 50.3216 39.0224 50.2534 39.0224ZM17.3096 37.9368C17.3732 37.9606 17.4277 37.9773 17.4695 37.9885C17.9352 38.115 18.3324 38.0306 18.447 37.8776C18.4648 37.8539 18.5188 37.7817 18.424 37.6265C18.276 37.384 17.9565 37.5001 17.7791 37.5909C17.6293 37.6674 17.4685 37.7851 17.3096 37.9368ZM54.2549 35.7296C54.2257 35.7296 54.2013 35.7335 54.1827 35.7409C54.1698 35.746 54.1551 35.7518 54.1585 35.8082C54.174 36.0715 54.4531 36.3243 54.8868 36.4682C55.0951 36.5375 55.3298 36.5804 55.5815 36.5931C55.0637 35.9865 54.4948 35.7296 54.2549 35.7296ZM17.6532 32.7982C17.8277 32.871 17.9751 32.9045 18.0598 32.9189C18.4529 32.9865 18.8279 32.9092 18.9706 32.7306C19.0398 32.644 19.0477 32.5395 18.9946 32.4109C18.9343 32.2649 18.6316 32.331 18.5398 32.3548C18.2827 32.4217 17.9706 32.5746 17.6532 32.7982ZM57.1107 29.955C57.0449 29.955 56.9907 29.9723 56.9515 30.0085C56.8462 30.1057 56.8193 30.2185 56.8718 30.3443C56.9634 30.5634 57.2945 30.7904 57.707 30.7654C57.8724 30.7578 58.0323 30.7142 58.1845 30.6365C58.1368 30.5862 58.0885 30.5378 58.0402 30.4915C57.6863 30.1532 57.3329 29.955 57.1107 29.955ZM56.5126 24.976C56.157 24.976 55.8382 25.096 55.6985 25.426C55.6232 25.6043 55.5695 25.8426 55.7416 25.9671C55.9601 26.1249 56.4691 26.0665 56.8513 25.731C57.0452 25.5607 57.1737 25.351 57.2362 25.1107C57.007 25.0299 56.7513 24.976 56.5126 24.976ZM53.6487 21.8356C53.4323 21.8657 53.2413 21.9199 53.089 21.9895C52.9216 22.0662 52.5457 22.2801 52.6716 22.6135C52.751 22.8235 52.8663 22.8249 52.9021 22.8204C53.1173 22.8156 53.443 22.5243 53.5938 22.0626C53.6132 22.0029 53.634 21.926 53.6487 21.8356Z" fill="#241726"/>
<path d="M34.019 71.8095L39.5365 71.3816L39.354 72.9587L34.7147 73.314L34.019 71.8095Z" fill="white"/>
<path d="M39.6548 71.2679C39.6207 71.2326 39.572 71.2133 39.5237 71.2182L34.0063 71.646C33.9527 71.6499 33.9045 71.6801 33.8774 71.7265C33.8502 71.773 33.8474 71.8298 33.8699 71.8785L34.5656 73.383C34.5924 73.4415 34.6509 73.4783 34.7146 73.4783C34.7188 73.4783 34.7229 73.4783 34.7271 73.478L35.7598 73.3988C35.9862 75.1215 29.7396 75.4076 33.6993 76.2129C37.2982 76.9449 37.4057 74.2794 37.3707 73.5583L37.5326 75.6151L38.8338 75.2282L38.4824 73.1901L39.3665 73.1223C39.4449 73.1165 39.5081 73.0555 39.5171 72.9776L39.6996 71.4005C39.7051 71.3519 39.6887 71.303 39.6548 71.2679ZM39.2063 72.8054L34.8157 73.1415L34.2671 71.9551L39.3504 71.5608L39.2063 72.8054Z" fill="#241726"/>
<path d="M41.5298 70.9235L47.0935 71.1485L46.6764 72.7768L41.5298 72.9587V70.9235Z" fill="white"/>
<path d="M45.4904 72.9832L46.6821 72.941C46.7549 72.9385 46.8173 72.888 46.8354 72.8176L47.2528 71.1893C47.2651 71.1412 47.2549 71.0902 47.2256 71.0504C47.1959 71.0105 47.1499 70.9865 47.1004 70.9843L41.5365 70.7591C41.4959 70.7604 41.4485 70.7738 41.4162 70.8049C41.384 70.8357 41.3657 70.8787 41.3657 70.9232V72.9585C41.3657 73.003 41.3838 73.0457 41.4159 73.0765C41.4465 73.1063 41.4874 73.1227 41.5299 73.1227C41.5318 73.1227 41.5338 73.1227 41.5357 73.1227L42.7332 73.0804L42.3971 75.2279L43.6984 75.6148L43.8603 73.558C43.8254 74.2791 43.9328 76.9446 47.5317 76.2126C51.5556 75.3944 45.1195 75.0043 45.4904 72.9832ZM41.6938 71.0943L46.8842 71.3044L46.5478 72.6171L41.6938 72.7887V71.0943Z" fill="#241726"/>
</g>
<defs>
<clipPath id="clip0_4670_3632">
<rect width="80" height="80" fill="white"/>
</clipPath>
</defs>
</svg>
